<svg width="480" height="440" viewBox="0 0 480 440" fill="none" xmlns="http://www.w3.org/2000/svg">
<path d="M301.636 12.6992L335.049 44.9588L368.632 226.811H53.624L301.636 12.6992Z" fill="#FFCF2D"/>
<path d="M335.336 44.7055L301.821 12.3447L307.427 6.51768C315.683 -2.06234 330.558 -1.08273 339.135 7.1595C347.712 15.4186 349.215 30.2985 340.959 38.8786L335.336 44.7055Z" fill="white"/>
<path d="M335.353 45.4149L301.112 12.3616L307.072 6.163C311.091 1.97433 316.815 -0.204454 323.197 0.0151134C329.309 0.234681 335.252 2.70059 339.507 6.78793C343.762 10.8753 346.446 16.736 346.885 22.8501C347.341 29.2176 345.366 35.0277 341.347 39.2164L335.353 45.4149ZM302.531 12.3278L335.32 43.9793L340.587 38.5239C344.42 34.5548 346.277 29.0149 345.855 22.9346C345.433 17.0569 342.867 11.4495 338.781 7.53108C334.695 3.61264 329.005 1.24807 323.146 1.04539C317.068 0.825825 311.614 2.90327 307.798 6.87238L302.531 12.3278Z" fill="#FFCF2D"/>
<path d="M340.942 39.3849C340.807 39.3849 340.689 39.3343 340.587 39.2498L307.056 6.88895C306.853 6.68628 306.853 6.38226 307.039 6.17958C307.241 5.9769 307.562 5.9769 307.748 6.16269L341.28 38.5236C341.482 38.7263 341.482 39.0303 341.297 39.2329C341.212 39.3343 341.077 39.3849 340.942 39.3849Z" fill="#FFCF2D"/>
<path d="M405.71 225.934C405.642 225.934 405.574 225.917 405.507 225.883C405.254 225.765 405.135 225.461 405.254 225.207L452.276 120.288L360.342 8.34217V8.32528C358.603 5.96071 356.053 4.44063 353.149 4.01838C350.245 3.59614 347.358 4.35618 345.028 6.1465L341.28 9.01777C341.06 9.18667 340.739 9.15288 340.57 8.91643C340.402 8.69686 340.435 8.37595 340.672 8.20705L344.42 5.33579C346.969 3.39346 350.127 2.56586 353.301 3.02188C356.475 3.47791 359.261 5.13311 361.152 7.71725L453.458 120.136L453.323 120.423L406.165 225.63C406.081 225.815 405.895 225.934 405.71 225.934Z" fill="#3FB1B5"/>
<path d="M451.364 125.946C454.218 125.946 456.531 123.632 456.531 120.778C456.531 117.923 454.218 115.609 451.364 115.609C448.511 115.609 446.198 117.923 446.198 120.778C446.198 123.632 448.511 125.946 451.364 125.946Z" fill="white"/>
<path d="M451.365 126.452C448.241 126.452 445.691 123.902 445.691 120.778C445.691 117.653 448.241 115.103 451.365 115.103C454.488 115.103 457.038 117.653 457.038 120.778C457.038 123.902 454.488 126.452 451.365 126.452ZM451.365 116.116C448.798 116.116 446.704 118.21 446.704 120.778C446.704 123.345 448.798 125.439 451.365 125.439C453.931 125.439 456.025 123.345 456.025 120.778C456.025 118.21 453.931 116.116 451.365 116.116Z" fill="#FFCF2D"/>
<path d="M392.607 213.671H417.782C425.025 213.671 430.884 219.549 430.884 226.777V227.149H379.488V226.777C379.505 219.549 385.364 213.671 392.607 213.671Z" fill="white"/>
<path d="M431.39 227.655H378.982V226.777C378.999 219.278 385.111 213.164 392.607 213.164H417.782C425.278 213.164 431.39 219.278 431.39 226.777V227.655V227.655ZM379.995 226.642H430.377C430.31 219.751 424.687 214.177 417.782 214.177H392.607C385.719 214.177 380.079 219.751 379.995 226.642Z" fill="#FFCF2D"/>
<path d="M270.653 188.793H111.283C105.29 188.793 100.444 183.945 100.444 177.949V66.4429C100.444 60.447 105.29 55.5996 111.283 55.5996H270.653C276.647 55.5996 281.493 60.447 281.493 66.4429V177.933C281.51 183.928 276.647 188.793 270.653 188.793Z" fill="white"/>
<path d="M270.653 189.299H111.284C105.02 189.299 99.9375 184.215 99.9375 177.949V66.4427C99.9375 60.1766 105.02 55.0928 111.284 55.0928H270.653C276.917 55.0928 281.999 60.1766 281.999 66.4427V177.932C282.016 180.956 280.835 183.81 278.69 185.955C276.546 188.117 273.692 189.299 270.653 189.299ZM111.284 56.1062C105.594 56.1062 100.951 60.7509 100.951 66.4427V177.949C100.951 183.641 105.594 188.286 111.284 188.286H270.653C273.422 188.286 276.023 187.205 277.981 185.246C279.923 183.286 281.003 180.685 280.986 177.932V66.4427C280.986 60.7509 276.343 56.1062 270.653 56.1062H111.284Z" fill="#3FB1B5"/>
<path d="M270.755 178.422H112.922C110.575 178.422 108.684 176.514 108.684 174.183V67.5069C108.684 65.1592 110.592 63.2676 112.922 63.2676H270.755C273.102 63.2676 274.993 65.1761 274.993 67.5069V174.166C275.01 176.514 273.102 178.422 270.755 178.422Z" fill="#66B0F0"/>
<path d="M270.755 178.929H112.922C110.305 178.929 108.177 176.801 108.177 174.183V67.5068C108.177 64.8889 110.305 62.7607 112.922 62.7607H270.755C273.372 62.7607 275.499 64.8889 275.499 67.5068V174.166C275.516 175.433 275.027 176.632 274.132 177.527C273.22 178.422 272.038 178.929 270.755 178.929ZM112.922 63.7741C110.862 63.7741 109.19 65.4462 109.19 67.5068V174.183C109.19 176.243 110.862 177.915 112.922 177.915H270.755C271.751 177.915 272.696 177.527 273.406 176.818C274.115 176.108 274.486 175.179 274.486 174.183V67.5068C274.486 65.4462 272.815 63.7741 270.755 63.7741H112.922Z" fill="#66B0F0"/>
<path d="M118.578 73.7396H116.079C114.981 73.7396 114.086 72.8444 114.086 71.7466V69.2469C114.086 68.1491 114.981 67.2539 116.079 67.2539H118.578C119.675 67.2539 120.57 68.1491 120.57 69.2469V71.7466C120.553 72.8613 119.675 73.7396 118.578 73.7396ZM116.079 68.2673C115.538 68.2673 115.099 68.7064 115.099 69.2469V71.7466C115.099 72.2871 115.538 72.7262 116.079 72.7262H118.578C119.118 72.7262 119.54 72.2871 119.557 71.7297V69.2469C119.557 68.7064 119.118 68.2673 118.578 68.2673H116.079V68.2673Z" fill="white"/>
<path d="M129.94 73.7396H127.442C126.344 73.7396 125.449 72.8444 125.449 71.7466V69.2469C125.449 68.1491 126.344 67.2539 127.442 67.2539H129.94C131.038 67.2539 131.933 68.1491 131.933 69.2469V71.7466C131.933 72.8444 131.038 73.7396 129.94 73.7396ZM127.442 68.2673C126.901 68.2673 126.462 68.7064 126.462 69.2469V71.7466C126.462 72.2871 126.901 72.7262 127.442 72.7262H129.94C130.481 72.7262 130.92 72.2871 130.92 71.7466V69.2469C130.92 68.7064 130.481 68.2673 129.94 68.2673H127.442Z" fill="white"/>
<path d="M141.304 73.7396H138.805C137.707 73.7396 136.812 72.8444 136.812 71.7466V69.2469C136.812 68.1491 137.707 67.2539 138.805 67.2539H141.304C142.401 67.2539 143.296 68.1491 143.296 69.2469V71.7466C143.296 72.8444 142.401 73.7396 141.304 73.7396ZM138.805 68.2673C138.265 68.2673 137.826 68.7064 137.826 69.2469V71.7466C137.826 72.2871 138.265 72.7262 138.805 72.7262H141.304C141.861 72.7262 142.283 72.304 142.283 71.7466V69.2469C142.283 68.7064 141.844 68.2673 141.304 68.2673H138.805Z" fill="white"/>
<path d="M224.61 226.812H162.747L174.886 188.793H212.454L224.61 226.812Z" fill="white"/>
<path d="M225.302 227.319H162.054L174.515 188.286H212.825L225.302 227.319ZM163.439 226.305H223.918L212.082 189.3H175.258L163.439 226.305Z" fill="#3FB1B5"/>
<path d="M167.609 211.594L174.886 188.793H212.453L167.609 211.594Z" fill="#3FB1B5"/>
<path d="M261.57 98.7534H231.499C228.409 98.7534 225.894 96.2368 225.894 93.1459V73.7227C225.894 70.6318 228.409 68.1152 231.499 68.1152H261.57C264.66 68.1152 267.175 70.6318 267.175 73.7227V93.1459C267.175 96.2368 264.66 98.7534 261.57 98.7534ZM231.499 69.1286C228.966 69.1286 226.907 71.1892 226.907 73.7227V93.1459C226.907 95.6794 228.966 97.74 231.499 97.74H261.57C264.102 97.74 266.162 95.6794 266.162 93.1459V73.7227C266.162 71.1892 264.102 69.1286 261.57 69.1286H231.499Z" fill="white"/>
<path d="M257.939 76.0534H234.994C234.707 76.0534 234.487 75.8339 234.487 75.5467C234.487 75.2596 234.707 75.04 234.994 75.04H257.939C258.226 75.04 258.446 75.2596 258.446 75.5467C258.446 75.8339 258.226 76.0534 257.939 76.0534Z" fill="white"/>
<path d="M257.939 81.2897H234.994C234.707 81.2897 234.487 81.0702 234.487 80.7831C234.487 80.4959 234.707 80.2764 234.994 80.2764H257.939C258.226 80.2764 258.446 80.4959 258.446 80.7831C258.446 81.0702 258.226 81.2897 257.939 81.2897Z" fill="white"/>
<path d="M257.939 86.5251H234.994C234.707 86.5251 234.487 86.3055 234.487 86.0184C234.487 85.7313 234.707 85.5117 234.994 85.5117H257.939C258.226 85.5117 258.446 85.7313 258.446 86.0184C258.446 86.3055 258.226 86.5251 257.939 86.5251Z" fill="white"/>
<path d="M257.939 91.7605H234.994C234.707 91.7605 234.487 91.5409 234.487 91.2538C234.487 90.9666 234.707 90.7471 234.994 90.7471H257.939C258.226 90.7471 258.446 90.9666 258.446 91.2538C258.446 91.5409 258.226 91.7605 257.939 91.7605Z" fill="white"/>
<path d="M269.877 178.422H150.354L143.347 188.471C135.428 199.821 118.696 199.99 110.558 188.792L67.8745 130.066C69.6642 132.296 77.8531 129.813 85.6535 124.678C93.5722 119.459 98.6881 112.889 97.0841 110.457L126.682 148.189L135.749 132.177C138.231 127.938 142.351 124.898 147.146 123.783L177.993 117.247H204.586L233.897 123.716C238.996 124.881 243.318 128.208 245.766 132.819L269.877 178.422Z" fill="white"/>
<path d="M126.834 197.592C120.165 197.592 114.086 194.501 110.152 189.08L67.4692 130.354L68.2797 129.746C69.7148 131.519 77.3296 129.56 85.3833 124.257C89.1316 121.791 92.3902 118.936 94.5514 116.2C96.51 113.734 97.3035 111.691 96.6619 110.728L97.4893 110.137L126.614 147.277L135.31 131.925C137.859 127.567 142.131 124.426 147.027 123.294L177.942 116.741H204.636L204.687 116.758L233.998 123.226C239.232 124.426 243.689 127.837 246.205 132.583L270.704 178.929H150.607L143.752 188.759C139.885 194.299 133.79 197.525 127.02 197.592C126.969 197.592 126.901 197.592 126.834 197.592ZM69.4278 131.333L110.98 188.489C114.762 193.691 120.604 196.646 127.037 196.579C133.469 196.511 139.261 193.454 142.941 188.185L150.1 177.916H269.049L245.327 133.056C242.946 128.563 238.742 125.338 233.795 124.206L204.535 117.754H178.044L147.247 124.273C142.621 125.354 138.585 128.327 136.188 132.431L126.75 149.102L97.8101 112.214C97.5737 113.481 96.7464 115.069 95.3281 116.842C93.0994 119.646 89.7563 122.585 85.9236 125.101C80.5713 128.614 74.1385 131.384 70.3058 131.384C70.0019 131.384 69.6979 131.367 69.4278 131.333Z" fill="#3FB1B5"/>
<path d="M237.071 178.237C236.885 178.237 236.716 178.135 236.615 177.967L228.122 161.195C228.004 160.942 228.089 160.638 228.342 160.519C228.595 160.401 228.899 160.486 229.017 160.739L237.51 177.511C237.628 177.764 237.544 178.068 237.291 178.186C237.223 178.22 237.155 178.237 237.071 178.237Z" fill="#3FB1B5"/>
<path d="M149.678 179.808C149.594 179.808 149.527 179.791 149.442 179.757C149.189 179.639 149.088 179.318 149.223 179.081L157.631 162.479C157.749 162.225 158.07 162.124 158.306 162.259C158.56 162.377 158.661 162.698 158.526 162.935L150.117 179.538C150.033 179.706 149.864 179.808 149.678 179.808Z" fill="#3FB1B5"/>
<path d="M134.432 158.695C134.28 158.695 134.128 158.628 134.026 158.493L114.762 133.85C114.593 133.631 114.626 133.31 114.846 133.141C115.065 132.972 115.386 133.006 115.555 133.225L134.82 157.868C134.989 158.087 134.955 158.408 134.736 158.577C134.651 158.661 134.533 158.695 134.432 158.695Z" fill="#3FB1B5"/>
<path d="M201.631 134.712L194.219 125.676C194.033 125.456 194.067 125.135 194.286 124.966C194.506 124.781 194.827 124.814 194.995 125.034L201.766 133.259L217.249 120.119C217.468 119.933 217.789 119.967 217.958 120.17C218.144 120.389 218.11 120.71 217.907 120.879L201.631 134.712Z" fill="#3FB1B5"/>
<path d="M182.383 135.033L164.536 120.896C164.317 120.727 164.283 120.406 164.452 120.186C164.621 119.967 164.942 119.933 165.161 120.102L182.197 133.597L188.765 125.203C188.934 124.983 189.255 124.949 189.474 125.118C189.694 125.287 189.728 125.608 189.559 125.828L182.383 135.033Z" fill="#3FB1B5"/>
<path d="M75.9956 139.187C74.3916 139.187 73.5474 138.698 73.1253 138.157C72.9565 137.938 72.9903 137.617 73.2098 137.448C73.4293 137.279 73.75 137.313 73.9189 137.532C74.628 138.427 76.9411 138.377 80.0985 137.431C83.4584 136.418 87.5106 134.424 91.1914 131.975C94.9566 129.476 98.2321 126.588 100.41 123.818C102.386 121.318 103.179 119.257 102.538 118.278C102.386 118.041 102.453 117.737 102.69 117.568C102.926 117.416 103.23 117.484 103.399 117.72C104.31 119.122 103.534 121.504 101.221 124.443C98.975 127.28 95.615 130.253 91.7654 132.803C87.9496 135.337 83.9143 137.33 80.4024 138.394C78.4945 138.968 77.0593 139.187 75.9956 139.187Z" fill="#3FB1B5"/>
<path d="M97.6581 122.788C96.3242 122.788 95.2437 121.707 95.2437 120.372C95.2437 119.038 96.3242 117.957 97.6581 117.957C98.9919 117.957 100.073 119.038 100.073 120.372C100.073 121.707 98.9919 122.788 97.6581 122.788ZM97.6581 118.97C96.8814 118.97 96.2567 119.595 96.2567 120.372C96.2567 121.149 96.8814 121.774 97.6581 121.774C98.4347 121.774 99.0595 121.149 99.0595 120.372C99.0595 119.595 98.4347 118.97 97.6581 118.97Z" fill="#3FB1B5"/>
<path d="M191.872 134.779C190.538 134.779 189.458 133.698 189.458 132.363C189.458 131.029 190.538 129.948 191.872 129.948C193.206 129.948 194.286 131.029 194.286 132.363C194.286 133.698 193.206 134.779 191.872 134.779ZM191.872 130.962C191.095 130.962 190.471 131.587 190.471 132.363C190.471 133.14 191.095 133.765 191.872 133.765C192.649 133.765 193.273 133.14 193.273 132.363C193.273 131.587 192.649 130.962 191.872 130.962Z" fill="#3FB1B5"/>
<path d="M191.872 150.149C190.538 150.149 189.458 149.068 189.458 147.734C189.458 146.399 190.538 145.318 191.872 145.318C193.206 145.318 194.286 146.399 194.286 147.734C194.286 149.068 193.206 150.149 191.872 150.149ZM191.872 146.332C191.095 146.332 190.471 146.957 190.471 147.734C190.471 148.511 191.095 149.135 191.872 149.135C192.649 149.135 193.273 148.511 193.273 147.734C193.273 146.957 192.649 146.332 191.872 146.332Z" fill="#3FB1B5"/>
<path d="M142.739 189.282L150.354 178.422V189.282H142.739Z" fill="#3FB1B5"/>
<path d="M85.4674 124.173C77.6669 129.307 69.4781 131.79 67.6884 129.561C67.6546 129.527 67.6377 129.493 67.604 129.442C67.2325 128.885 67.2663 128.125 67.604 127.196C68.769 124.139 73.581 119.41 79.693 115.39C84.5557 112.181 89.3508 109.952 92.6769 109.259C94.6017 108.871 96.0369 108.989 96.7291 109.732L96.898 109.935C98.4851 112.367 93.3861 118.954 85.4674 124.173Z" fill="#FE5244"/>
<path d="M85.4676 124.172C81.027 127.094 76.4514 129.172 73.0071 129.983L57.5918 108.228C55.4475 105.188 56.1567 100.983 59.2127 98.8377L73.0915 89.0754L65.2235 75.6818C64.0753 73.7395 64.7338 71.2229 66.6924 70.0913C67.334 69.7197 68.0262 69.5508 68.7185 69.5508C70.0523 69.5508 71.3693 70.2095 72.146 71.4256L96.7462 109.698L96.915 109.968C98.4852 112.366 93.3862 118.953 85.4676 124.172Z" fill="#E57281"/>
<path d="M77.4474 108.482C77.2279 108.482 77.0084 108.465 76.7889 108.414C75.9447 108.245 75.2187 107.739 74.7628 107.029L66.6415 94.8685C66.4896 94.6321 66.5571 94.3281 66.7766 94.1592C67.013 94.0071 67.3169 94.0747 67.4857 94.2943L75.607 106.455C75.9278 106.945 76.4174 107.283 76.9915 107.401C77.5656 107.519 78.1565 107.401 78.6462 107.08L80.5541 105.83C81.5671 105.171 81.8541 103.82 81.2125 102.807L72.6185 89.4807C72.4666 89.2442 72.5341 88.9402 72.7705 88.7882C73.0068 88.6362 73.3108 88.7038 73.4627 88.9402L82.0567 102.266C83.0023 103.753 82.5633 105.729 81.0944 106.675L79.1864 107.924C78.6799 108.296 78.0721 108.482 77.4474 108.482Z" fill="#9A3B82"/>
<path d="M71.1498 112.519C70.103 112.519 69.073 112.012 68.4483 111.083C68.2964 110.846 68.3639 110.542 68.6003 110.374C68.8367 110.222 69.1406 110.289 69.3094 110.526C69.9679 111.522 71.3186 111.809 72.3317 111.167L74.0708 110.07C74.5604 109.749 74.915 109.259 75.0331 108.668C75.1513 108.077 75.05 107.485 74.7292 106.996C74.5773 106.759 74.6448 106.455 74.8812 106.286C75.1176 106.134 75.4215 106.202 75.5903 106.438C76.0631 107.165 76.2319 108.026 76.0462 108.887C75.8605 109.732 75.3539 110.458 74.6279 110.931L72.8889 112.029C72.3486 112.35 71.7407 112.519 71.1498 112.519Z" fill="#9A3B82"/>
<path d="M64.9704 116.302C63.9573 116.302 62.9611 115.829 62.3364 114.934L57.727 108.431C57.5582 108.195 57.6257 107.891 57.8452 107.722C58.0647 107.553 58.3855 107.62 58.5544 107.84L63.1638 114.343C63.856 115.305 65.1561 115.559 66.1354 114.934L66.1691 114.917L67.7731 114.022C68.2796 113.701 68.6173 113.211 68.7524 112.637C68.8875 112.046 68.7693 111.454 68.4485 110.948L60.496 99.1249C60.3441 98.8884 60.3948 98.5844 60.6311 98.4155C60.8675 98.2635 61.1714 98.3142 61.3403 98.5506L69.2927 110.373C69.7823 111.117 69.9343 111.995 69.7486 112.839C69.5629 113.684 69.0563 114.41 68.3134 114.866L68.2965 114.883L66.6925 115.778C66.1354 116.15 65.5444 116.302 64.9704 116.302Z" fill="#9A3B82"/>
<path d="M91.0053 100.78L86.97 94.5137C85.6361 92.4363 82.8502 91.862 80.8072 93.247L70.7949 100.037C70.7949 100.037 73.699 105.256 80.7566 101.118L83.1204 104.884C78.2915 107.941 76.907 114.376 80.0475 119.156L91.0053 100.78Z" fill="#E57281"/>
<path d="M80.0475 119.663C79.8787 119.663 79.7267 119.579 79.6254 119.427C78.0383 116.994 77.4811 114.089 78.1059 111.252C78.6799 108.583 80.2164 106.286 82.4282 104.732L80.5878 101.794C78.1565 103.128 75.9447 103.516 73.9861 102.993C71.5041 102.317 70.3898 100.358 70.3391 100.29L70.1196 99.885L79.98 92.994C81.0943 92.2509 82.4113 91.9806 83.7114 92.2509C85.0115 92.5211 86.1258 93.2811 86.8518 94.4127L90.8872 100.679C91.0391 100.915 90.9716 101.219 90.7352 101.371C90.4988 101.523 90.1949 101.456 90.043 101.219L86.0076 94.9532C85.4336 94.0581 84.5556 93.45 83.5088 93.2474C82.4789 93.0278 81.4151 93.2474 80.5541 93.8385L71.4872 100.172C71.8925 100.696 72.8042 101.642 74.2563 102.03C76.046 102.52 78.1396 102.064 80.4865 100.696L80.9086 100.442L83.7958 105.053L83.3737 105.324C81.1619 106.725 79.6254 108.921 79.0682 111.488C78.5111 114.056 79.0007 116.69 80.4527 118.886C80.6047 119.123 80.5372 119.427 80.3008 119.595C80.2333 119.629 80.1488 119.663 80.0475 119.663Z" fill="#9A3B82"/>
<path d="M85.4675 124.173C81.027 127.094 76.4514 129.172 73.007 129.983L69.1743 124.578C71.3186 121.774 75.1513 118.396 79.6931 115.407C84.5558 112.198 89.3509 109.968 92.6771 109.276C94.6019 108.887 96.037 109.005 96.7293 109.749L96.8981 109.951C96.915 109.985 96.9319 110.002 96.9488 110.036C96.9656 110.053 96.9656 110.07 96.9825 110.103C96.9994 110.137 97.0163 110.154 97.0332 110.188C98.1813 112.772 93.1329 119.106 85.4675 124.173Z" fill="#9A3B82"/>
<path d="M204.569 102.385V117.231C204.569 121.538 198.591 125.017 191.247 125.017C183.885 125.017 177.925 121.538 177.925 117.231V102.385H204.569Z" fill="#E57281"/>
<path d="M181.825 122.737C179.41 121.335 177.908 119.376 177.908 117.231V102.385H204.568V106.506C204.568 110.779 201.968 114.613 198.017 116.218L181.825 122.737Z" fill="#9A3B82"/>
<path d="M211.997 101.507V101.76C211.997 104.327 209.92 106.405 207.354 106.405H204.298C203.268 110.56 199.52 113.65 195.029 113.65H187.464C182.99 113.65 179.225 110.577 178.212 106.405H175.156C172.589 106.405 170.513 104.327 170.513 101.76V101.507C170.513 98.9394 172.589 96.862 175.156 96.862H177.925V93.1969C177.925 89.2784 180.812 86.0356 184.577 85.4951C185.405 86.8801 187.903 90.1905 193.002 90.0047C195.4 89.9203 197.629 89.4642 199.469 88.9237C201.681 88.2819 203.893 89.6331 204.45 91.7444C204.534 92.2173 204.585 92.6902 204.585 93.18V96.8451H207.354C209.903 96.8451 211.997 98.9394 211.997 101.507Z" fill="#E57281"/>
<path d="M206.695 96.8454H204.568V92.7749C204.568 92.4202 204.517 92.0656 204.433 91.7447C203.876 89.6334 201.664 88.2822 199.452 88.9241C197.612 89.4645 195.4 89.9206 192.985 90.005C187.886 90.1908 185.387 86.8804 184.56 85.4954C180.795 86.0359 177.908 89.2787 177.908 93.1972V96.8623H175.257C175.257 96.8623 172.218 85.867 174.497 82.7593C176.743 79.7022 179.444 81.0365 179.444 81.0365C179.444 81.0365 177.823 71.8822 186.873 72.0511C195.906 72.22 207.658 82.7086 208.519 84.634C209.869 87.5898 206.695 96.8454 206.695 96.8454Z" fill="#9A3B82"/>
<path d="M205.598 102.791C205.362 102.791 205.176 102.605 205.176 102.369C205.176 100.342 206.831 98.6865 208.857 98.6865C209.093 98.6865 209.279 98.8723 209.279 99.1088C209.279 99.3452 209.093 99.531 208.857 99.531C207.287 99.531 206.02 100.798 206.02 102.369C206.02 102.605 205.835 102.791 205.598 102.791Z" fill="#9A3B82"/>
<path d="M176.929 102.791C176.692 102.791 176.507 102.605 176.507 102.369C176.507 100.798 175.24 99.531 173.67 99.531C173.434 99.531 173.248 99.3452 173.248 99.1088C173.248 98.8723 173.434 98.6865 173.67 98.6865C175.696 98.6865 177.351 100.342 177.351 102.369C177.351 102.605 177.165 102.791 176.929 102.791Z" fill="#9A3B82"/>
<path d="M200.314 93.6195C200.229 93.6195 200.145 93.5857 200.06 93.535C199.976 93.4675 197.798 91.9305 195.012 93.0959C194.793 93.1804 194.556 93.079 194.455 92.8594C194.37 92.6399 194.472 92.4034 194.691 92.3021C197.933 90.9678 200.449 92.7581 200.55 92.8426C200.736 92.9777 200.786 93.2479 200.635 93.4337C200.567 93.5519 200.449 93.6195 200.314 93.6195Z" fill="#9A3B82"/>
<path d="M182.011 93.6202C181.876 93.6202 181.758 93.5526 181.673 93.4513C181.538 93.2655 181.572 92.9953 181.758 92.8601C181.859 92.7757 184.392 90.9853 187.617 92.3197C187.836 92.4041 187.938 92.6575 187.853 92.877C187.769 93.0966 187.515 93.1979 187.296 93.1135C184.493 91.9481 182.281 93.5357 182.248 93.5526C182.18 93.5864 182.096 93.6202 182.011 93.6202Z" fill="#9A3B82"/>
<path d="M192.31 107.84C191.652 107.84 190.892 107.705 190.031 107.384C189.812 107.3 189.693 107.063 189.778 106.844C189.862 106.624 190.099 106.506 190.318 106.591C193.864 107.908 195.029 105.577 195.08 105.476C195.181 105.273 195.434 105.172 195.637 105.273C195.839 105.374 195.941 105.628 195.839 105.831C195.822 105.864 194.86 107.84 192.31 107.84Z" fill="#9A3B82"/>
<path d="M191.112 104.666C190.723 104.666 190.301 104.666 189.947 104.632C189.71 104.615 189.541 104.412 189.558 104.176C189.575 103.939 189.778 103.77 190.014 103.787C191.01 103.855 192.547 103.787 192.564 103.787C192.8 103.77 192.986 103.956 193.003 104.193C193.02 104.429 192.834 104.615 192.597 104.632C192.564 104.632 191.871 104.666 191.112 104.666Z" fill="#9A3B82"/>
<path d="M197.595 100.24C198.061 100.24 198.439 99.6046 198.439 98.8211C198.439 98.0375 198.061 97.4023 197.595 97.4023C197.129 97.4023 196.751 98.0375 196.751 98.8211C196.751 99.6046 197.129 100.24 197.595 100.24Z" fill="#9A3B82"/>
<path d="M185.489 100.24C185.955 100.24 186.333 99.6046 186.333 98.8211C186.333 98.0375 185.955 97.4023 185.489 97.4023C185.023 97.4023 184.645 98.0375 184.645 98.8211C184.645 99.6046 185.023 100.24 185.489 100.24Z" fill="#9A3B82"/>
<path d="M187.498 104.023H182.18C180.93 104.023 179.9 102.993 179.9 101.743V96.4227C179.9 95.1729 180.93 94.1426 182.18 94.1426H187.498C188.748 94.1426 189.778 95.1729 189.778 96.4227V101.743C189.795 102.334 189.558 102.908 189.136 103.331C188.697 103.787 188.123 104.023 187.498 104.023ZM182.18 94.9871C181.386 94.9871 180.745 95.6289 180.745 96.4227V101.743C180.745 102.537 181.386 103.179 182.18 103.179H187.498C187.887 103.179 188.258 103.027 188.528 102.739C188.798 102.469 188.933 102.115 188.933 101.743V96.4227C188.933 95.6289 188.292 94.9871 187.498 94.9871H182.18Z" fill="white"/>
<path d="M200.516 104.023H195.197C193.948 104.023 192.918 102.993 192.918 101.743V96.4227C192.918 95.1729 193.948 94.1426 195.197 94.1426H200.516C201.765 94.1426 202.795 95.1729 202.795 96.4227V101.743C202.795 102.993 201.765 104.023 200.516 104.023ZM195.197 94.9871C194.404 94.9871 193.762 95.6289 193.762 96.4227V101.743C193.762 102.537 194.404 103.179 195.197 103.179H200.516C201.309 103.179 201.951 102.537 201.951 101.743V96.4227C201.951 95.6289 201.309 94.9871 200.516 94.9871H195.197Z" fill="white"/>
<path d="M193.34 97.6553H189.373V98.4998H193.34V97.6553Z" fill="white"/>
<path d="M201.918 172.375H183.464C181.505 172.375 179.918 170.788 179.918 168.829V159.016C179.918 157.056 181.505 155.469 183.464 155.469H201.918C203.877 155.469 205.464 157.056 205.464 159.016V168.829C205.464 170.788 203.877 172.375 201.918 172.375ZM183.464 156.482C182.062 156.482 180.931 157.614 180.931 159.016V168.829C180.931 170.23 182.062 171.362 183.464 171.362H201.918C203.319 171.362 204.451 170.23 204.451 168.829V159.016C204.451 157.614 203.319 156.482 201.918 156.482H183.464Z" fill="#66B0F0"/>
<path d="M193.155 167.917H186.908C185.912 167.917 185.101 167.106 185.101 166.109V161.735C185.101 160.738 185.912 159.928 186.908 159.928H193.155C194.151 159.928 194.961 160.738 194.961 161.735V166.109C194.961 167.106 194.151 167.917 193.155 167.917Z" fill="#66B0F0"/>
<path d="M199.233 167.798L197.309 166.514C196.785 166.16 196.464 165.552 196.464 164.893V162.967C196.464 162.309 196.785 161.701 197.309 161.346L199.233 160.062C199.689 159.758 200.28 160.096 200.28 160.67V167.207C200.297 167.764 199.689 168.102 199.233 167.798Z" fill="#66B0F0"/>
<path d="M448.731 227.656H0.506525C0.219494 227.656 0 227.436 0 227.149C0 226.862 0.219494 226.643 0.506525 226.643H448.731C449.018 226.643 449.237 226.862 449.237 227.149C449.237 227.436 449.018 227.656 448.731 227.656Z" fill="#3FB1B5"/>
<path d="M144.815 230.105V438.627H133.047V398.936C133.047 395.237 130.042 392.231 126.344 392.231H42.109C38.4113 392.231 35.406 395.237 35.406 398.936V438.627H23.6377V230.105H144.815Z" fill="white"/>
<path d="M145.322 439.134H132.541V398.936C132.541 395.524 129.755 392.737 126.344 392.737H42.1092C38.6986 392.737 35.9127 395.524 35.9127 398.936V439.134H23.1313V229.599H145.322V439.134V439.134ZM133.554 438.12H144.309V230.612H24.1444V438.12H34.8996V398.936C34.8996 394.967 38.1414 391.724 42.1092 391.724H126.344C130.312 391.724 133.554 394.967 133.554 398.936V438.12Z" fill="#3FB1B5"/>
<path d="M145.17 230.105V285.436L23.6377 385.542L23.6546 230.105H145.17Z" fill="#D0F0E4"/>
<path d="M126.699 290.655H41.7715C37.9894 290.655 34.9165 287.581 34.9165 283.798V245.981C34.9165 242.198 37.9894 239.124 41.7715 239.124H126.699C130.481 239.124 133.554 242.198 133.554 245.981V283.798C133.554 287.581 130.481 290.655 126.699 290.655ZM41.7715 240.137C38.5466 240.137 35.9296 242.755 35.9296 245.981V283.798C35.9296 287.024 38.5466 289.641 41.7715 289.641H126.699C129.924 289.641 132.541 287.024 132.541 283.798V245.981C132.541 242.755 129.924 240.137 126.699 240.137H41.7715Z" fill="#3FB1B5"/>
<path d="M105.83 318.793H64.0247L62.2856 306.818H104.108L105.83 318.793Z" fill="#FFCF2D"/>
<path d="M128.134 299.911C122.917 299.911 118.696 304.134 118.696 309.353V318.794H83.1206V309.353C83.1206 304.134 87.3417 299.911 92.5589 299.911H128.134Z" fill="white"/>
<path d="M119.202 319.301H82.6143V309.352C82.6143 303.863 87.0717 299.404 92.559 299.404H128.134V300.418C123.204 300.418 119.202 304.421 119.202 309.352V319.301ZM83.6273 318.287H118.189V309.352C118.189 305.434 120.469 302.039 123.761 300.418H92.559C87.6289 300.418 83.6273 304.421 83.6273 309.352V318.287Z" fill="#3FB1B5"/>
<path d="M136.998 306.819H101.423C100.326 302.833 96.662 299.911 92.3228 299.911H127.898C132.237 299.911 135.884 302.833 136.998 306.819Z" fill="white"/>
<path d="M137.674 307.326H101.053L100.951 306.954C99.8876 303.103 96.3419 300.418 92.3403 300.418V299.404H127.915C132.356 299.404 136.307 302.394 137.506 306.684L137.674 307.326ZM101.795 306.312H136.307C135.04 302.816 131.664 300.418 127.898 300.418H96.6965C99.0771 301.583 100.968 303.694 101.795 306.312Z" fill="#3FB1B5"/>
<path d="M126.699 369.818H41.7715C37.9894 369.818 34.9165 366.744 34.9165 362.961V325.144C34.9165 321.361 37.9894 318.287 41.7715 318.287H126.699C130.481 318.287 133.554 321.361 133.554 325.144V362.961C133.554 366.744 130.481 369.818 126.699 369.818ZM41.7715 319.3C38.5466 319.3 35.9296 321.918 35.9296 325.144V362.961C35.9296 366.187 38.5466 368.804 41.7715 368.804H126.699C129.924 368.804 132.541 366.187 132.541 362.961V325.144C132.541 321.918 129.924 319.3 126.699 319.3H41.7715Z" fill="#3FB1B5"/>
<path d="M101.642 264.645C101.355 264.645 101.136 264.425 101.136 264.138C101.136 261.402 98.9239 259.189 96.1886 259.189H72.2975C69.5623 259.189 67.3505 261.402 67.3505 264.138C67.3505 264.425 67.131 264.645 66.8439 264.645C66.5569 264.645 66.3374 264.425 66.3374 264.138C66.3374 260.844 69.0051 258.176 72.2975 258.176H96.1886C99.481 258.176 102.149 260.844 102.149 264.138C102.149 264.425 101.929 264.645 101.642 264.645Z" fill="#3FB1B5"/>
<path d="M101.642 343.808C101.355 343.808 101.136 343.588 101.136 343.301C101.136 340.565 98.9239 338.352 96.1886 338.352H72.2975C69.5623 338.352 67.3505 340.565 67.3505 343.301C67.3505 343.588 67.131 343.808 66.8439 343.808C66.5569 343.808 66.3374 343.588 66.3374 343.301C66.3374 340.007 69.0051 337.339 72.2975 337.339H96.1886C99.481 337.339 102.149 340.007 102.149 343.301C102.149 343.588 101.929 343.808 101.642 343.808Z" fill="#3FB1B5"/>
<path d="M430.884 230.105H418.339V439.083H430.884V230.105Z" fill="white"/>
<path d="M431.391 439.59H417.833V229.599H431.391V439.59ZM418.846 438.576H430.377V230.612H418.846V438.576Z" fill="#3FB1B5"/>
<path d="M479.494 439.589H217.688C217.401 439.589 217.181 439.37 217.181 439.083C217.181 438.796 217.401 438.576 217.688 438.576H479.494C479.781 438.576 480 438.796 480 439.083C480 439.37 479.781 439.589 479.494 439.589Z" fill="#3FB1B5"/>
<path d="M59.2634 198.487H51.6824C51.6824 198.487 40.8596 153.374 31.3538 151.905C21.8481 150.435 21.3584 167.798 21.3584 167.798C21.3584 167.798 21.5273 141.399 45.2833 145.014C69.0562 148.628 59.2634 198.487 59.2634 198.487Z" fill="white"/>
<path d="M59.6858 198.994H51.2944L51.1931 198.605C51.1593 198.487 48.441 187.205 44.6083 175.906C38.2598 157.209 33.8531 152.8 31.2867 152.412C29.5307 152.142 27.9774 152.547 26.6942 153.628C22.2199 157.344 21.8822 167.714 21.8822 167.815L20.8691 167.798C20.8691 167.663 20.9029 164.573 21.8991 160.62C22.8277 156.955 24.7863 151.838 28.8891 148.325C33.0595 144.761 38.5975 143.477 45.3849 144.524C49.7748 145.183 53.3374 147.446 55.9882 151.213C60.243 157.276 62.1847 167.089 61.7288 180.415C61.3911 190.296 59.804 198.504 59.7871 198.589L59.6858 198.994ZM52.0879 197.981H58.8585C59.1793 196.207 60.4287 188.911 60.7158 180.364C61.0197 171.362 60.2937 159.117 55.1609 151.804C52.6789 148.257 49.3358 146.146 45.233 145.538C38.7663 144.558 33.4816 145.757 29.5476 149.118C28.3657 150.132 27.3526 151.297 26.5084 152.53C27.9436 151.517 29.5982 151.162 31.4555 151.449C35.5921 152.091 40.3535 160.232 45.5875 175.635C49.015 185.752 51.5645 195.886 52.0879 197.981Z" fill="#3FB1B5"/>
<path d="M55.9371 198.319C55.667 198.319 55.4306 198.099 55.4306 197.812C54.8734 164.184 47.7483 152.311 41.8726 148.291C37.4152 145.234 33.515 146.619 33.4812 146.636C33.211 146.737 32.924 146.602 32.8227 146.332C32.7214 146.062 32.8565 145.774 33.1266 145.673C33.3123 145.606 37.5503 144.102 42.4467 147.446C46.2287 150.048 49.3185 154.81 51.6148 161.634C54.5695 170.417 56.1904 182.577 56.4437 197.795C56.4437 198.082 56.2242 198.319 55.9371 198.319Z" fill="#3FB1B5"/>
<path d="M79.9129 197.812H44.3042V226.811H79.9129V197.812Z" fill="#FE5244"/>
<path d="M87.4096 212.32C85.1471 213.3 82.4456 213.182 79.9299 212.084C78.0726 211.273 76.3167 209.939 74.8984 208.115C72.9399 205.581 71.6229 202.119 71.6229 197.812C71.6229 187.374 63.3159 180.821 59.9053 194.637C59.6689 195.599 59.4494 196.647 59.2637 197.812V197.778V197.711C59.2637 197.677 59.2637 197.626 59.2806 197.575V197.508C59.3481 196.647 59.6014 194.096 60.378 191.022C60.9521 188.742 61.8132 186.209 63.0964 183.861C63.738 182.696 64.4809 181.581 65.3589 180.584C67.6213 177.983 70.728 176.159 74.9659 176.159C82.7664 176.159 88.4733 185.347 90.6513 194.502C92.5592 202.457 91.7826 210.412 87.4096 212.32Z" fill="white"/>
<path d="M84.0834 213.486C82.6482 213.486 81.1455 213.165 79.7273 212.54C77.718 211.661 75.9114 210.243 74.4932 208.419C72.2813 205.564 71.1163 201.882 71.1163 197.812C71.1163 193.049 69.0227 187.678 65.8991 187.306C63.6366 187.036 61.6443 189.755 60.3949 194.755C60.1416 195.802 59.939 196.815 59.7533 197.896L58.7402 197.812V197.71C58.7402 197.677 58.7402 197.592 58.7571 197.508V197.457C58.8247 196.511 59.0948 193.978 59.8715 190.887C60.5637 188.151 61.4923 185.702 62.6405 183.607C63.3665 182.307 64.1263 181.192 64.9705 180.246C67.6213 177.189 70.9812 175.652 74.9659 175.652C83.0703 175.652 88.9291 185.06 91.1409 194.383C92.1202 198.487 92.3904 202.524 91.8838 205.75C91.3267 209.381 89.8409 211.797 87.6121 212.776C86.5316 213.249 85.3328 213.486 84.0834 213.486ZM65.5952 186.276C65.7472 186.276 65.8822 186.293 66.0173 186.31C69.3941 186.715 72.1294 191.883 72.1294 197.829C72.1294 201.68 73.2268 205.142 75.3036 207.827C76.6206 209.516 78.2921 210.834 80.1325 211.645C82.5469 212.692 85.1302 212.776 87.2069 211.881C90.989 210.226 92.1878 203.149 90.1617 194.653C89.0304 189.874 87.0212 185.465 84.5224 182.239C81.7027 178.608 78.4103 176.7 74.9659 176.7C71.302 176.7 68.1954 178.135 65.7472 180.956C64.9536 181.868 64.2276 182.898 63.5522 184.148C62.708 185.702 61.982 187.441 61.3911 189.367C61.6781 188.894 61.9651 188.472 62.269 188.1C63.4678 186.631 64.6835 186.276 65.5952 186.276Z" fill="#3FB1B5"/>
<path d="M85.6024 213.148C85.3492 213.148 85.1297 212.962 85.0959 212.692C82.6308 189.536 77.0084 182.374 72.7367 180.449C68.9209 178.726 65.696 180.973 65.6622 180.989C65.4428 181.158 65.122 181.091 64.9531 180.871C64.7843 180.652 64.8518 180.331 65.0713 180.162C65.2233 180.06 68.8027 177.561 73.1419 179.52C76.0122 180.821 78.5111 183.759 80.5541 188.286C83.1205 193.944 84.9777 202.119 86.0921 212.573C86.1258 212.844 85.9232 213.097 85.6362 213.131C85.6362 213.148 85.6193 213.148 85.6024 213.148Z" fill="#3FB1B5"/>
<path d="M20.8517 167.798C20.8517 170.585 20.5309 181.243 30.6952 181.732C40.8595 182.222 41.8725 166.869 41.8725 166.869C41.8725 166.869 36.8748 153.29 31.3537 151.905C22.0167 149.557 20.8517 167.798 20.8517 167.798Z" fill="#3FB1B5"/>
<path d="M71.6224 197.811H59.2632C62.1166 179.925 71.6224 186.647 71.6224 197.811Z" fill="#3FB1B5"/>
<path opacity="0.4" d="M281.51 66.4429V177.933C281.51 183.928 276.647 188.776 270.67 188.776H143.11C135.107 199.805 118.611 199.856 110.541 188.776L110.524 188.759C107.316 188.539 104.479 186.901 102.656 184.486L105.594 181.952L180.559 117.231L251.946 55.5996H270.67C276.647 55.5996 281.51 60.4639 281.51 66.4429Z" fill="white"/>
<path opacity="0.4" d="M87.4095 212.826C85.1639 213.84 82.4455 213.688 79.9298 212.59V226.811H53.6411L74.9152 208.452L79.9467 204.111L83.7794 200.801L91.1915 194.501C93.3527 203.723 92.1539 210.648 87.4095 212.826Z" fill="white"/>
<path d="M311.276 287.868V381.877H289.563L275.735 343.25L255.93 287.868H311.276Z" fill="#A0505A"/>
<path d="M255.93 287.868H311.276V318.05L262.515 306.261L255.93 287.868Z" fill="#73325A"/>
<path d="M311.782 382.384H289.208L274.806 342.152L275.988 342.794C276.022 342.811 278.825 344.314 284.531 345.057C289.799 345.75 298.714 345.902 311.158 342.743L311.782 342.591V382.384V382.384ZM289.917 381.37H310.769V343.892C298.444 346.949 289.597 346.763 284.312 346.071C280.479 345.564 277.947 344.736 276.613 344.196L289.917 381.37Z" fill="white"/>
<path d="M287.03 352.827C285.392 352.827 284.059 351.493 284.059 349.854C284.059 348.216 285.392 346.882 287.03 346.882C288.668 346.882 290.002 348.216 290.002 349.854C290.002 351.493 288.668 352.827 287.03 352.827ZM287.03 347.895C285.95 347.895 285.072 348.773 285.072 349.854C285.072 350.935 285.95 351.814 287.03 351.814C288.111 351.814 288.989 350.935 288.989 349.854C288.989 348.773 288.111 347.895 287.03 347.895Z" fill="white"/>
<path d="M298.782 360.782C297.144 360.782 295.81 359.448 295.81 357.81C295.81 356.171 297.144 354.837 298.782 354.837C300.419 354.837 301.753 356.171 301.753 357.81C301.753 359.448 300.419 360.782 298.782 360.782ZM298.782 355.85C297.701 355.85 296.823 356.729 296.823 357.81C296.823 358.89 297.701 359.769 298.782 359.769C299.862 359.769 300.74 358.89 300.74 357.81C300.74 356.729 299.862 355.85 298.782 355.85Z" fill="white"/>
<path d="M307.528 351.948C305.89 351.948 304.556 350.614 304.556 348.976C304.556 347.337 305.89 346.003 307.528 346.003C309.166 346.003 310.499 347.337 310.499 348.976C310.499 350.614 309.166 351.948 307.528 351.948ZM307.528 347.016C306.447 347.016 305.569 347.895 305.569 348.976C305.569 350.057 306.447 350.935 307.528 350.935C308.608 350.935 309.486 350.057 309.486 348.976C309.486 347.895 308.608 347.016 307.528 347.016Z" fill="white"/>
<path d="M304.066 370.037C302.429 370.037 301.095 368.703 301.095 367.064C301.095 365.426 302.429 364.092 304.066 364.092C305.704 364.092 307.038 365.426 307.038 367.064C307.038 368.703 305.704 370.037 304.066 370.037ZM304.066 365.105C302.986 365.105 302.108 365.983 302.108 367.064C302.108 368.145 302.986 369.024 304.066 369.024C305.147 369.024 306.025 368.145 306.025 367.064C306.025 365.983 305.147 365.105 304.066 365.105Z" fill="white"/>
<path d="M289.496 365.545C287.858 365.545 286.524 364.211 286.524 362.572C286.524 360.934 287.858 359.6 289.496 359.6C291.133 359.6 292.467 360.934 292.467 362.572C292.467 364.211 291.133 365.545 289.496 365.545ZM289.496 360.613C288.415 360.613 287.537 361.491 287.537 362.572C287.537 363.653 288.415 364.531 289.496 364.531C290.576 364.531 291.454 363.653 291.454 362.572C291.454 361.491 290.576 360.613 289.496 360.613Z" fill="white"/>
<path d="M293.514 379.057C291.876 379.057 290.542 377.722 290.542 376.084C290.542 374.446 291.876 373.111 293.514 373.111C295.152 373.111 296.486 374.446 296.486 376.084C296.486 377.722 295.152 379.057 293.514 379.057ZM293.514 374.125C292.434 374.125 291.556 375.003 291.556 376.084C291.556 377.165 292.434 378.043 293.514 378.043C294.595 378.043 295.473 377.165 295.473 376.084C295.473 375.003 294.595 374.125 293.514 374.125Z" fill="white"/>
<path d="M321.542 399.409L306.65 430.334C304.539 435.317 299.66 438.56 294.24 438.56H275.245C270.383 438.56 267.428 433.628 269.285 429.135L288.381 383.06C289.445 380.256 291.319 377.925 293.666 376.287C296.03 374.649 298.866 373.72 301.855 373.72C306.008 373.72 310.128 376.54 312.863 379.665L319.482 386.809C322.538 390.289 323.331 395.17 321.542 399.409Z" fill="#66B0F0"/>
<path d="M321.542 399.409L306.65 430.334C304.539 435.317 299.66 438.56 294.24 438.56H274.046C272.172 438.56 271.109 437.394 270.484 435.79H274.975C280.395 435.79 285.274 432.547 287.385 427.564L304.556 391.741C306.16 388.397 309.554 386.252 313.268 386.252C318.114 386.252 321.795 389.799 322.47 394.292C322.538 396.014 322.234 397.754 321.542 399.409Z" fill="white"/>
<path d="M294.24 439.066H274.046C272.172 439.066 270.805 438.019 270.011 435.975C269.943 435.823 269.977 435.638 270.062 435.503C270.163 435.367 270.315 435.283 270.484 435.283H274.975C280.192 435.283 284.886 432.175 286.912 427.362C286.912 427.362 286.912 427.345 286.929 427.345L304.1 391.521C305.789 388.008 309.385 385.745 313.268 385.745C318.148 385.745 322.234 389.309 322.977 394.224C322.977 394.241 322.977 394.258 322.977 394.274C323.044 396.099 322.723 397.906 322.014 399.612C322.014 399.612 322.014 399.629 321.997 399.629L307.106 430.537C304.911 435.722 299.862 439.066 294.24 439.066ZM271.277 436.296C271.919 437.496 272.814 438.053 274.046 438.053H294.24C299.457 438.053 304.151 434.945 306.177 430.132C306.177 430.132 306.177 430.115 306.194 430.115L321.086 399.206C321.727 397.652 322.031 396.014 321.964 394.342C321.288 389.951 317.641 386.759 313.268 386.759C309.773 386.759 306.532 388.802 305.012 391.961L287.841 427.767C285.646 432.952 280.597 436.296 274.975 436.296H271.277Z" fill="#66B0F0"/>
<path d="M318.114 385.323C316.325 384.344 314.163 383.634 312.272 383.634C308.642 383.634 305.282 385.746 303.712 389.022L285.933 426.112C283.671 431.466 278.436 434.929 272.611 434.929H269.336C269.167 434.608 269.049 434.27 268.931 433.915H272.611C278.031 433.915 282.894 430.69 285.004 425.707L285.021 425.69L302.817 388.583C304.556 384.952 308.271 382.621 312.289 382.621C313.572 382.621 315.109 383.043 316.426 383.499L318.114 385.323Z" fill="white"/>
<path d="M255.93 287.868L251.692 343.25L249.801 368.061C249.801 368.061 237.458 381.809 223.411 373.331L216.91 343.267L202.035 274.475C198.017 255.879 210.714 237.79 229.574 235.273L255.93 287.868Z" fill="#A0505A"/>
<path d="M232.917 377.266C229.894 377.266 226.568 376.506 223.158 374.446L222.972 374.328L216.252 342.541L217.062 342.794C233.052 347.591 251.388 342.828 251.574 342.777L252.266 342.592L250.307 368.957L250.189 369.092C250.054 369.227 246.981 372.622 242.102 375.02C239.653 376.202 236.479 377.266 232.917 377.266ZM223.867 373.686C229.472 376.996 235.449 377.131 241.629 374.108C245.816 372.048 248.72 369.142 249.311 368.518L251.135 343.909C249.598 344.264 245.613 345.125 240.464 345.598C234.537 346.155 225.842 346.291 217.569 343.994L223.867 373.686Z" fill="white"/>
<path d="M232.291 359.076C230.654 359.076 229.32 357.742 229.32 356.103C229.32 354.465 230.654 353.131 232.291 353.131C233.929 353.131 235.263 354.465 235.263 356.103C235.263 357.742 233.929 359.076 232.291 359.076ZM232.291 354.144C231.211 354.144 230.333 355.022 230.333 356.103C230.333 357.184 231.211 358.063 232.291 358.063C233.372 358.063 234.25 357.184 234.25 356.103C234.25 355.022 233.372 354.144 232.291 354.144Z" fill="white"/>
<path d="M247.96 355.293C246.323 355.293 244.989 353.959 244.989 352.32C244.989 350.682 246.323 349.348 247.96 349.348C249.598 349.348 250.932 350.682 250.932 352.32C250.932 353.959 249.598 355.293 247.96 355.293ZM247.96 350.361C246.88 350.361 246.002 351.239 246.002 352.32C246.002 353.401 246.88 354.279 247.96 354.279C249.041 354.279 249.919 353.401 249.919 352.32C249.919 351.239 249.041 350.361 247.96 350.361Z" fill="white"/>
<path d="M222.837 351.948C221.199 351.948 219.865 350.614 219.865 348.976C219.865 347.337 221.199 346.003 222.837 346.003C224.475 346.003 225.809 347.337 225.809 348.976C225.809 350.614 224.475 351.948 222.837 351.948ZM222.837 347.016C221.756 347.016 220.878 347.895 220.878 348.976C220.878 350.057 221.756 350.935 222.837 350.935C223.917 350.935 224.795 350.057 224.795 348.976C224.795 347.895 223.917 347.016 222.837 347.016Z" fill="white"/>
<path d="M229.827 372.504C228.189 372.504 226.855 371.169 226.855 369.531C226.855 367.893 228.189 366.559 229.827 366.559C231.465 366.559 232.799 367.893 232.799 369.531C232.799 371.169 231.465 372.504 229.827 372.504ZM229.827 367.572C228.746 367.572 227.869 368.45 227.869 369.531C227.869 370.612 228.746 371.49 229.827 371.49C230.908 371.49 231.786 370.612 231.786 369.531C231.786 368.45 230.908 367.572 229.827 367.572Z" fill="white"/>
<path d="M241.325 367.571C239.687 367.571 238.353 366.237 238.353 364.599C238.353 362.96 239.687 361.626 241.325 361.626C242.962 361.626 244.296 362.96 244.296 364.599C244.296 366.237 242.962 367.571 241.325 367.571ZM241.325 362.639C240.244 362.639 239.366 363.518 239.366 364.599C239.366 365.68 240.244 366.558 241.325 366.558C242.405 366.558 243.283 365.68 243.283 364.599C243.283 363.518 242.405 362.639 241.325 362.639Z" fill="white"/>
<path d="M266.077 373.972L249.801 439.083H244.668C244.432 439.083 244.212 439.066 243.976 439.049C240.092 438.694 236.817 435.417 235.99 431.55L223.394 373.297C237.442 381.792 249.801 368.044 249.801 368.044L266.077 373.972Z" fill="#66B0F0"/>
<path d="M266.904 407.381C270.332 389.275 271.277 375.442 265.368 374.327C259.458 373.213 248.94 385.221 245.512 403.327C242.085 421.433 243.874 437.445 249.784 438.559C255.693 439.691 263.477 425.504 266.904 407.381Z" fill="white"/>
<path d="M250.459 439.134C250.206 439.134 249.936 439.117 249.683 439.066C246.61 438.492 244.466 434.337 243.638 427.379C242.845 420.673 243.334 412.093 245.006 403.243C246.593 394.883 249.818 387.096 254.09 381.32C258.007 376.033 262.261 373.23 265.452 373.838C268.525 374.412 270.045 377.891 270.129 384.478C270.197 389.849 269.302 397.365 267.394 407.482C266.043 414.61 264 421.315 261.485 426.872C259.003 432.361 256.284 436.212 253.634 438.019C252.553 438.745 251.489 439.134 250.459 439.134ZM264.575 374.767C261.873 374.767 258.243 377.435 254.917 381.928C250.73 387.586 247.572 395.22 246.002 403.429C244.347 412.195 243.858 420.656 244.634 427.26C245.394 433.645 247.302 437.58 249.868 438.07C250.848 438.256 251.928 437.952 253.076 437.175C258.26 433.645 263.747 421.366 266.398 407.297C268.306 397.264 269.184 389.799 269.116 384.495C269.049 378.55 267.749 375.307 265.267 374.834C265.047 374.784 264.811 374.767 264.575 374.767Z" fill="#66B0F0"/>
<path d="M243.148 403.04C241.375 412.43 240.852 421.5 241.696 428.594C242.304 433.695 243.587 437.326 245.343 439.083H244.668C244.431 439.083 244.212 439.066 243.976 439.049C242.388 436.954 241.257 433.441 240.683 428.712C239.822 421.534 240.345 412.346 242.152 402.854C243.857 393.869 247.302 385.441 251.877 379.107C254.613 375.324 257.483 372.672 260.1 371.473L261.619 371.979C255.592 373.77 246.441 385.66 243.148 403.04Z" fill="white"/>
<path d="M229.574 235.257L306.6 227.318L383.592 248.92L382.933 259.156C381.886 275.302 367.974 287.868 351.799 287.868H255.947L229.574 235.257Z" fill="#FE5244"/>
<path d="M348.405 281.282H252.553C252.266 281.282 252.047 281.062 252.047 280.775C252.047 280.488 252.266 280.268 252.553 280.268H348.405C355.733 280.268 363.415 276.4 369.493 269.628C375.251 263.21 378.695 255.187 378.695 248.178C378.695 247.89 378.914 247.671 379.202 247.671C379.489 247.671 379.708 247.89 379.708 248.178C379.708 255.44 376.162 263.716 370.253 270.32C363.972 277.279 356.02 281.282 348.405 281.282Z" fill="white"/>
<path d="M340.858 272.836H248.67C248.383 272.836 248.164 272.617 248.164 272.329C248.164 272.042 248.383 271.823 248.67 271.823H340.858C347.257 271.823 353.875 268.816 359.464 263.344C364.715 258.209 368.396 251.589 369.561 245.171C369.611 244.9 369.882 244.715 370.152 244.765C370.422 244.816 370.608 245.086 370.557 245.356C368.176 258.345 355.395 272.836 340.858 272.836Z" fill="white"/>
<path d="M332.736 264.223H243.774C243.487 264.223 243.267 264.003 243.267 263.716C243.267 263.429 243.487 263.21 243.774 263.21H332.736C344.893 263.21 355.445 252.265 359.211 241.979C359.312 241.709 359.599 241.574 359.852 241.675C360.122 241.777 360.257 242.064 360.156 242.317C358.063 248.043 354.28 253.431 349.485 257.484C344.268 261.892 338.477 264.223 332.736 264.223Z" fill="white"/>
<path d="M328.346 254.934H239.383C239.096 254.934 238.877 254.714 238.877 254.427C238.877 254.14 239.096 253.92 239.383 253.92H328.346C336.721 253.92 345.5 248.465 351.275 239.699C351.427 239.463 351.748 239.395 351.984 239.547C352.22 239.699 352.288 240.02 352.136 240.256C346.159 249.309 337.058 254.934 328.346 254.934Z" fill="white"/>
<path d="M324.125 246.489H235.162C234.875 246.489 234.656 246.269 234.656 245.982C234.656 245.695 234.875 245.475 235.162 245.475H324.125C330.575 245.475 337.075 242.503 342.427 237.115C342.63 236.912 342.951 236.912 343.137 237.115C343.339 237.318 343.339 237.638 343.137 237.824C337.599 243.415 330.845 246.489 324.125 246.489Z" fill="white"/>
<path d="M319.566 237.875H230.604C230.317 237.875 230.097 237.655 230.097 237.368C230.097 237.081 230.317 236.861 230.604 236.861H319.566C323.365 236.861 327.181 235.78 330.929 233.669C331.166 233.534 331.487 233.618 331.622 233.855C331.757 234.091 331.672 234.412 331.436 234.547C327.536 236.76 323.534 237.875 319.566 237.875Z" fill="white"/>
<path d="M255.762 288.375C255.576 288.375 255.39 288.274 255.306 288.088L228.949 235.476C228.831 235.223 228.933 234.919 229.169 234.801C229.422 234.682 229.726 234.784 229.844 235.02L256.201 287.632C256.319 287.885 256.217 288.189 255.981 288.307C255.913 288.358 255.846 288.375 255.762 288.375Z" fill="white"/>
<path d="M387.812 178.422C380.552 180.483 373.41 179.875 372.65 177.662C371.941 175.551 375.149 171.937 381.649 169.538C381.97 169.42 382.308 169.302 382.645 169.184C384.604 168.525 386.563 168.103 388.403 167.883C393.856 167.191 398.297 168.17 398.854 169.825C399.614 172.038 395.494 176.244 387.812 178.422Z" fill="white"/>
<path d="M379.167 180.196C375.487 180.196 372.701 179.368 372.16 177.831C371.249 175.129 375.25 171.362 381.464 169.065C381.784 168.947 382.122 168.829 382.46 168.71H382.477C384.385 168.069 386.36 167.63 388.335 167.393C393.924 166.684 398.652 167.663 399.327 169.673C399.563 170.332 399.445 171.143 399.006 171.987C397.588 174.689 393.249 177.426 387.947 178.929C384.891 179.773 381.801 180.196 379.167 180.196ZM391.864 168.17C390.834 168.17 389.703 168.238 388.47 168.39C386.563 168.626 384.655 169.048 382.814 169.673C382.477 169.791 382.139 169.91 381.835 170.028C378.897 171.109 376.398 172.544 374.811 174.081C373.477 175.365 372.853 176.649 373.14 177.51C373.697 179.148 380.197 180.06 387.677 177.949C391.814 176.784 396.642 174.335 398.111 171.514C398.415 170.923 398.517 170.399 398.381 169.994C398.078 169.099 395.68 168.17 391.864 168.17Z" fill="#3FB1B5"/>
<path d="M383.219 227.672H380.434L373.123 178.303V178.27L372.937 177.037C373.292 174.79 376.803 171.615 383 169.555C386.09 168.524 389.163 168.068 391.78 168.018L394.447 175.331L394.701 176.023L403.143 199.179C408.208 213.012 397.959 227.672 383.219 227.672Z" fill="#A0505A"/>
<path d="M394.616 175.854C392.843 176.969 390.547 177.999 387.812 178.776C381.531 180.55 375.166 179.824 373.123 178.303V178.27L372.937 177.037C373.292 174.79 376.804 171.615 383 169.555C386.09 168.524 389.163 168.068 391.78 168.018L394.616 175.854Z" fill="#73325A"/>
<path d="M292.788 187.053L283.924 209.111C279.551 220.005 268.981 227.149 257.23 227.149H138.079V216.238C138.079 213.604 139.699 211.239 142.165 210.31L154.406 205.665C155.52 205.243 156.685 205.024 157.867 205.024H171.763L250.409 197.085L263.984 165.991L292.788 187.053Z" fill="#A0505A"/>
<path d="M138.585 220.85C138.298 220.85 138.079 220.63 138.079 220.343C138.079 218.13 139.412 216.188 141.489 215.394L150.725 211.898C150.978 211.797 151.282 211.932 151.383 212.185C151.485 212.439 151.35 212.743 151.096 212.844L141.861 216.34C140.189 216.982 139.092 218.553 139.092 220.343C139.092 220.63 138.872 220.85 138.585 220.85Z" fill="#73325A"/>
<path d="M138.585 226.423C138.298 226.423 138.079 226.203 138.079 225.916C138.079 223.704 139.412 221.761 141.489 220.968L150.725 217.471C150.978 217.37 151.282 217.505 151.383 217.758C151.485 218.012 151.35 218.316 151.096 218.417L141.861 221.913C140.189 222.555 139.092 224.126 139.092 225.916C139.092 226.203 138.872 226.423 138.585 226.423Z" fill="#73325A"/>
<path d="M141.675 227.149C141.472 227.149 141.27 227.014 141.202 226.811C141.101 226.541 141.236 226.254 141.506 226.17L150.742 222.842C151.012 222.741 151.299 222.876 151.383 223.146C151.485 223.417 151.349 223.704 151.079 223.788L141.844 227.115C141.793 227.132 141.726 227.149 141.675 227.149Z" fill="#73325A"/>
<path d="M149.948 207.54C149.948 207.54 158.593 185.465 161.362 185.837C164.131 186.208 153.697 206.121 153.697 206.121L149.948 207.54Z" fill="#FE5244"/>
<path d="M263.984 166.008L261.991 170.551L287.503 200.193L292.788 187.053L263.984 166.008Z" fill="#73325A"/>
<path d="M373.123 178.32L383.591 248.92L306.616 227.318L292.788 187.036L257.095 160.941L269.623 146.01C280.801 132.684 297.296 124.982 314.687 124.982H339.422C360.933 124.982 380.738 136.738 391.054 155.621L399.074 169.504C399.074 169.504 396.66 165.957 383.642 169.521C372.178 172.679 373.123 178.32 373.123 178.32Z" fill="#3FB1B5"/>
<path d="M292.788 187.221C292.754 187.221 292.704 187.221 292.67 187.204C292.4 187.136 292.231 186.866 292.299 186.596L296.3 169.233C296.368 168.963 296.638 168.794 296.908 168.862C297.178 168.929 297.347 169.199 297.279 169.47L293.278 186.832C293.227 187.069 293.025 187.221 292.788 187.221Z" fill="white"/>
<path d="M381.65 232.942C381.413 232.942 381.194 232.773 381.143 232.52L368.126 151.567C368.075 151.297 368.261 151.026 368.548 150.993C368.818 150.942 369.088 151.128 369.122 151.415L382.139 232.368C382.19 232.638 382.004 232.908 381.717 232.942C381.7 232.942 381.684 232.942 381.65 232.942Z" fill="white"/>
<path d="M383.423 249.427C383.372 249.427 383.338 249.427 383.288 249.41L306.465 227.487C306.195 227.402 306.043 227.132 306.11 226.862C306.195 226.592 306.465 226.44 306.735 226.507L383.558 248.43C383.828 248.515 383.98 248.785 383.912 249.055C383.845 249.275 383.642 249.427 383.423 249.427Z" fill="white"/>
<path d="M310.753 113.7V125.05L330.778 124.881V104.85L310.753 113.7Z" fill="#A0505A"/>
<path d="M332.399 101.353V101.657C332.399 104.698 330.102 107.164 327.063 107.164H325.881C325.122 110.17 318.368 113.683 313.573 113.683H307.984C301.872 113.683 297.195 108.194 298.191 102.147L298.461 100.509L296.807 99.58C295.861 99.0395 295.591 97.8066 296.25 96.9283L299.829 92.1992L300.606 87.5376C301.23 83.7036 303.746 80.579 307.089 79.042C308.406 93.8881 321.508 95.6447 324.97 95.8474H326.894C329.933 95.8474 332.399 98.3133 332.399 101.353Z" fill="#A0505A"/>
<path d="M323.534 103.313C323.247 103.313 323.028 103.093 323.028 102.806C323.028 100.138 325.206 97.959 327.874 97.959C328.161 97.959 328.38 98.1786 328.38 98.4657C328.38 98.7528 328.161 98.9724 327.874 98.9724C325.763 98.9724 324.041 100.695 324.041 102.806C324.041 103.093 323.821 103.313 323.534 103.313Z" fill="#73325A"/>
<path d="M305.232 95.9997C305.708 95.9997 306.093 95.1074 306.093 94.0067C306.093 92.906 305.708 92.0137 305.232 92.0137C304.757 92.0137 304.371 92.906 304.371 94.0067C304.371 95.1074 304.757 95.9997 305.232 95.9997Z" fill="#73325A"/>
<path d="M308.744 91.4894C308.592 91.4894 308.44 91.4218 308.339 91.2867C306.093 88.179 303.999 88.3479 303.966 88.3479C303.679 88.3816 303.442 88.179 303.408 87.8918C303.375 87.6216 303.577 87.3683 303.864 87.3345C303.966 87.3176 306.566 87.1149 309.149 90.6787C309.318 90.8982 309.267 91.2191 309.031 91.388C308.946 91.4556 308.845 91.4894 308.744 91.4894Z" fill="#73325A"/>
<path d="M324.97 95.8479H326.894C329.934 95.8479 332.399 98.3138 332.399 101.354V101.658C332.399 104.698 330.102 107.164 327.063 107.164L325.763 108.076C320.293 111.589 312.729 125.405 314.586 135.184C316.679 146.18 326.253 148.629 335.1 146.94C343.947 145.251 350.397 140.099 348.304 129.087C348.067 127.787 347.679 126.486 347.189 125.202C347.341 125.253 347.476 125.304 347.628 125.354C358.265 128.259 370.76 128.597 374.204 120.287C377.648 111.978 376.872 103.752 366.522 99.4623C360.511 96.9626 352.339 96.9795 346.007 98.7023C349.198 87.6057 343.525 75.2592 333.108 74.0262C316.747 72.0839 307.359 78.8399 307.106 79.0256C307.089 80.9849 308.423 94.8852 324.97 95.8479Z" fill="#73325A"/>
<path d="M347.628 125.878C347.392 125.878 347.172 125.709 347.139 125.473C345.349 116.099 337.683 110.931 337.599 110.88C337.464 110.796 337.379 110.627 337.379 110.458C337.379 110.289 337.464 110.137 337.599 110.035C342.833 106.337 345.096 100.999 345.974 98.1619C346.058 97.8917 346.345 97.7397 346.598 97.8241C346.868 97.9086 347.02 98.1957 346.936 98.449C346.058 101.32 343.829 106.59 338.747 110.441C340.655 111.876 346.548 116.91 348.135 125.27C348.185 125.54 348 125.811 347.729 125.861C347.696 125.878 347.662 125.878 347.628 125.878Z" fill="white"/>
<path d="M351.022 98.4482H346.548C346.261 98.4482 346.042 98.2287 346.042 97.9416V93.4658C346.042 90.8478 348.169 88.7197 350.786 88.7197H351.022C353.639 88.7197 355.767 90.8478 355.767 93.4658V93.7022C355.784 94.9521 355.294 96.1512 354.399 97.0464C353.504 97.9416 352.306 98.4482 351.022 98.4482ZM347.055 97.4349H351.022C352.035 97.4349 352.964 97.0464 353.673 96.3201C354.365 95.6108 354.754 94.6818 354.754 93.7022V93.4658C354.754 91.4052 353.082 89.7331 351.022 89.7331H350.786C348.726 89.7331 347.055 91.4052 347.055 93.4658V97.4349Z" fill="#FE5244"/>
<path d="M353.521 105.306C351.714 105.306 349.975 104.427 348.945 102.806L346.075 98.2458C345.923 98.0093 345.99 97.6884 346.227 97.5533L350.786 94.682C352.001 93.922 353.453 93.6686 354.855 93.9895C356.256 94.3104 357.455 95.1549 358.231 96.371L358.502 96.7932C359.278 98.0093 359.515 99.4618 359.194 100.864C358.873 102.266 358.029 103.465 356.813 104.242L356.391 104.512C355.513 105.035 354.517 105.306 353.521 105.306ZM347.206 98.1275L349.806 102.266C351.089 104.292 353.808 104.9 355.868 103.617L356.29 103.346C357.286 102.722 357.961 101.759 358.215 100.61C358.468 99.4618 358.265 98.2964 357.64 97.2999L357.37 96.8777C356.746 95.8812 355.783 95.2056 354.635 94.9522C353.487 94.6989 352.322 94.9016 351.326 95.5265L347.206 98.1275Z" fill="#FE5244"/>
<path d="M325.864 118.818C325.746 118.818 325.628 118.818 325.51 118.801C324.244 118.7 323.095 118.125 322.268 117.163L322.116 116.977C321.289 116.031 320.884 114.815 320.968 113.565C321.052 112.298 321.626 111.133 322.589 110.305L325.763 107.265C325.864 107.164 325.999 107.113 326.135 107.13C326.27 107.13 326.405 107.198 326.489 107.299L329.613 110.829C330.44 111.792 330.862 113.025 330.761 114.291C330.66 115.558 330.085 116.707 329.123 117.534L328.92 117.686C328.093 118.413 327.013 118.818 325.864 118.818ZM326.101 108.346L323.298 111.032L323.281 111.049C322.521 111.707 322.065 112.619 321.998 113.633C321.93 114.629 322.251 115.575 322.893 116.318C322.893 116.318 322.893 116.335 322.91 116.335L323.062 116.521C323.703 117.264 324.598 117.72 325.594 117.805C326.59 117.872 327.553 117.551 328.313 116.909L328.515 116.74C329.258 116.099 329.714 115.203 329.798 114.207C329.866 113.21 329.545 112.248 328.904 111.488L326.101 108.346Z" fill="#FE5244"/>
<path d="M332.331 116.96C329.967 116.96 327.789 115.389 327.114 113.008L325.679 107.823C325.611 107.553 325.763 107.282 326.033 107.198L331.217 105.762C332.601 105.374 334.053 105.56 335.303 106.252C336.552 106.961 337.464 108.11 337.852 109.495L337.987 109.985C338.375 111.37 338.19 112.822 337.497 114.072C336.788 115.322 335.64 116.234 334.256 116.622L333.766 116.758C333.276 116.91 332.804 116.96 332.331 116.96ZM328.093 112.738C328.751 115.052 331.166 116.437 333.479 115.795L333.969 115.66C335.1 115.339 336.029 114.613 336.603 113.599C337.177 112.586 337.312 111.403 337.008 110.272L336.873 109.782C336.552 108.65 335.826 107.721 334.813 107.147C333.8 106.573 332.618 106.438 331.487 106.742L326.793 108.042L328.093 112.738Z" fill="#FE5244"/>
<path d="M252.114 439.066C252.08 439.066 252.046 439.066 252.013 439.049C251.742 438.998 251.557 438.728 251.624 438.441L281.037 300.738C281.087 300.468 281.357 300.282 281.644 300.35C281.915 300.401 282.1 300.671 282.033 300.958L252.604 438.661C252.553 438.897 252.35 439.066 252.114 439.066Z" fill="#FFCF2D"/>
<path d="M386.208 439.066C385.972 439.066 385.769 438.897 385.718 438.66L356.306 300.958C356.256 300.688 356.425 300.417 356.695 300.35C356.965 300.299 357.235 300.468 357.302 300.738L386.715 438.441C386.765 438.711 386.596 438.981 386.326 439.049C386.276 439.066 386.242 439.066 386.208 439.066Z" fill="#FFCF2D"/>
<path d="M379.286 408.495H258.632C258.344 408.495 258.125 408.275 258.125 407.988C258.125 407.701 258.344 407.481 258.632 407.481H379.286C379.573 407.481 379.792 407.701 379.792 407.988C379.792 408.275 379.573 408.495 379.286 408.495Z" fill="#FFCF2D"/>
<path d="M379.944 300.857H258.361C256.824 300.857 255.575 299.607 255.575 298.07V290.655C255.575 289.118 256.824 287.868 258.361 287.868H379.944C381.48 287.868 382.729 289.118 382.729 290.655V298.07C382.729 299.607 381.48 300.857 379.944 300.857Z" fill="white"/>
<path d="M379.944 301.363H258.361C256.537 301.363 255.068 299.894 255.068 298.07V290.655C255.068 288.831 256.537 287.361 258.361 287.361H379.944C381.767 287.361 383.236 288.831 383.236 290.655V298.07C383.236 299.894 381.767 301.363 379.944 301.363ZM258.361 288.375C257.111 288.375 256.081 289.405 256.081 290.655V298.07C256.081 299.319 257.111 300.35 258.361 300.35H379.944C381.193 300.35 382.223 299.319 382.223 298.07V290.655C382.223 289.405 381.193 288.375 379.944 288.375H258.361Z" fill="#66B0F0"/>
</svg>
