<svg width="400" height="442" viewBox="0 0 400 442" fill="none" xmlns="http://www.w3.org/2000/svg">
<path fill-rule="evenodd" clip-rule="evenodd" d="M45.4565 430.666H289.694V431.8H45.4565V430.666Z" fill="#3FB1B5"/>
<path fill-rule="evenodd" clip-rule="evenodd" d="M272.592 442H3.75439V441.123H272.592V442Z" fill="#66B0F0"/>
<path d="M271.404 4.52148V48.4912C271.404 57.1022 264.375 64.0974 255.721 64.0974H206.728C215.381 64.0974 222.411 57.1235 222.411 48.4912V4.52148H271.404Z" fill="white"/>
<path fill-rule="evenodd" clip-rule="evenodd" d="M221.877 3.99023H271.939V48.4915C271.939 57.3961 264.67 64.6293 255.721 64.6293H206.728V63.5662C215.086 63.5662 221.877 56.8298 221.877 48.4915V3.99023ZM212.529 63.5662H255.721C264.08 63.5662 270.87 56.809 270.87 48.4915V5.05333H222.945V48.4915C222.945 55.3791 218.617 61.2456 212.529 63.5662Z" fill="#66B0F0"/>
<path d="M248.777 0.269531H244.824V9.64604H248.777V0.269531Z" fill="#FFCF2D"/>
<path d="M257.153 21.2345C256.598 21.2345 256.042 21.0219 255.594 20.6178L253.948 19.1716C253.436 18.725 252.752 18.725 252.239 19.1716L250.679 20.554C249.761 21.3621 248.479 21.3621 247.538 20.554L246.107 19.2992C245.594 18.8526 244.91 18.8526 244.398 19.2992L243.073 20.4689C242.154 21.2771 240.872 21.2771 239.932 20.4689L238.842 19.5119C238.329 19.0653 237.646 19.0653 237.133 19.5119L235.958 20.554C235.039 21.3621 233.757 21.3621 232.817 20.554L231.727 19.597C231.214 19.1504 230.531 19.1504 230.018 19.597C229.804 19.7884 229.462 19.7671 229.27 19.5544C229.078 19.3418 229.099 19.0015 229.313 18.8101C230.232 18.0019 231.513 18.0019 232.454 18.8101L233.543 19.7671C234.056 20.2137 234.74 20.2137 235.253 19.7671L236.428 18.725C237.347 17.9169 238.629 17.9169 239.569 18.725L240.658 19.682C241.171 20.1287 241.855 20.1287 242.368 19.682L243.692 18.5124C244.611 17.7042 245.893 17.7042 246.833 18.5124L248.265 19.7671C248.778 20.2137 249.461 20.2137 249.974 19.7671L251.534 18.3848C252.453 17.5766 253.735 17.5766 254.675 18.3848L256.32 19.8309C256.833 20.2775 257.517 20.2775 258.03 19.8309L259.739 18.321C260.658 17.5128 261.94 17.5128 262.88 18.321C263.093 18.5124 263.115 18.8526 262.922 19.0653C262.73 19.278 262.388 19.2992 262.175 19.1078C261.662 18.6612 260.978 18.6612 260.465 19.1078L258.756 20.6178C258.243 21.0219 257.709 21.2345 257.153 21.2345Z" fill="#66B0F0"/>
<path d="M257.153 29.9728C256.598 29.9728 256.042 29.7601 255.594 29.356L253.948 27.9099C253.436 27.4633 252.752 27.4633 252.239 27.9099L250.679 29.2922C249.761 30.1004 248.479 30.1004 247.538 29.2922L246.107 28.0375C245.594 27.5909 244.91 27.5909 244.398 28.0375L243.073 29.2072C242.154 30.0153 240.872 30.0153 239.932 29.2072L238.842 28.2502C238.329 27.8036 237.646 27.8036 237.133 28.2502L235.958 29.2922C235.039 30.1004 233.757 30.1004 232.817 29.2922L231.727 28.3352C231.214 27.8886 230.531 27.8886 230.018 28.3352C229.804 28.5266 229.462 28.5054 229.27 28.2927C229.078 28.08 229.099 27.7398 229.313 27.5484C230.232 26.7402 231.513 26.7402 232.454 27.5484L233.543 28.5054C234.056 28.952 234.74 28.952 235.253 28.5054L236.428 27.4633C237.347 26.6552 238.629 26.6552 239.569 27.4633L240.658 28.4203C241.171 28.8669 241.855 28.8669 242.368 28.4203L243.692 27.2506C244.611 26.4425 245.893 26.4425 246.833 27.2506L248.265 28.5054C248.778 28.952 249.461 28.952 249.974 28.5054L251.534 27.123C252.453 26.3149 253.735 26.3149 254.675 27.123L256.32 28.5692C256.833 29.0158 257.517 29.0158 258.03 28.5692L259.739 27.0592C260.658 26.2511 261.94 26.2511 262.88 27.0592C263.093 27.2506 263.115 27.5909 262.922 27.8036C262.73 28.0162 262.388 28.0375 262.175 27.8461C261.662 27.3995 260.978 27.3995 260.465 27.8461L258.756 29.356C258.243 29.7814 257.709 29.9728 257.153 29.9728Z" fill="#66B0F0"/>
<path d="M257.153 38.7111C256.598 38.7111 256.042 38.4984 255.594 38.0943L253.948 36.6482C253.436 36.2016 252.752 36.2016 252.239 36.6482L250.679 38.0305C249.761 38.8387 248.479 38.8387 247.538 38.0305L246.107 36.7758C245.594 36.3292 244.91 36.3292 244.398 36.7758L243.073 37.9455C242.154 38.7536 240.872 38.7536 239.932 37.9455L238.842 36.9885C238.329 36.5419 237.646 36.5419 237.133 36.9885L235.958 38.0305C235.039 38.8387 233.757 38.8387 232.817 38.0305L231.727 37.0735C231.214 36.6269 230.531 36.6269 230.018 37.0735C229.804 37.2649 229.462 37.2437 229.27 37.031C229.078 36.8183 229.099 36.4781 229.313 36.2867C230.232 35.4785 231.513 35.4785 232.454 36.2867L233.543 37.2437C234.056 37.6903 234.74 37.6903 235.253 37.2437L236.428 36.2016C237.347 35.3934 238.629 35.3934 239.569 36.2016L240.658 37.1586C241.171 37.6052 241.855 37.6052 242.368 37.1586L243.692 35.9889C244.611 35.1808 245.893 35.1808 246.833 35.9889L248.265 37.2437C248.778 37.6903 249.461 37.6903 249.974 37.2437L251.534 35.8613C252.453 35.0532 253.735 35.0532 254.675 35.8613L256.32 37.3075C256.833 37.7541 257.517 37.7541 258.03 37.3075L259.739 35.7975C260.658 34.9894 261.94 34.9894 262.88 35.7975C263.093 35.9889 263.115 36.3292 262.922 36.5419C262.73 36.7545 262.388 36.7758 262.175 36.5844C261.662 36.1378 260.978 36.1378 260.465 36.5844L258.756 38.0943C258.243 38.5197 257.709 38.7111 257.153 38.7111Z" fill="#66B0F0"/>
<path d="M257.153 47.4709C256.598 47.4709 256.042 47.2582 255.594 46.8541L253.948 45.408C253.436 44.9614 252.752 44.9614 252.239 45.408L250.679 46.7903C249.761 47.5985 248.479 47.5985 247.538 46.7903L246.107 45.5356C245.594 45.089 244.91 45.089 244.398 45.5356L243.073 46.7052C242.154 47.5134 240.872 47.5134 239.932 46.7052L238.842 45.7482C238.329 45.3016 237.646 45.3016 237.133 45.7482L235.958 46.7903C235.039 47.5985 233.757 47.5985 232.817 46.7903L231.727 45.8333C231.214 45.3867 230.531 45.3867 230.018 45.8333C229.804 46.0247 229.462 46.0034 229.27 45.7908C229.078 45.5781 229.099 45.2378 229.313 45.0464C230.232 44.2383 231.513 44.2383 232.454 45.0464L233.543 46.0034C234.056 46.45 234.74 46.45 235.253 46.0034L236.428 44.9614C237.347 44.1532 238.629 44.1532 239.569 44.9614L240.658 45.9184C241.171 46.365 241.855 46.365 242.368 45.9184L243.692 44.7487C244.611 43.9405 245.893 43.9405 246.833 44.7487L248.265 46.0034C248.778 46.45 249.461 46.45 249.974 46.0034L251.534 44.6211C252.453 43.8129 253.735 43.8129 254.675 44.6211L256.32 46.0672C256.833 46.5138 257.517 46.5138 258.03 46.0672L259.739 44.5573C260.658 43.7491 261.94 43.7491 262.88 44.5573C263.093 44.7487 263.115 45.089 262.922 45.3016C262.73 45.5143 262.388 45.5356 262.175 45.3442C261.662 44.8976 260.978 44.8976 260.465 45.3442L258.756 46.8541C258.243 47.2582 257.709 47.4709 257.153 47.4709Z" fill="#66B0F0"/>
<path d="M321.849 4.52148H287.577V38.6256H321.849V4.52148Z" fill="#FFCF2D"/>
<path d="M295.108 3.06639L292.627 0.00390625L283.579 7.29904L286.06 10.3615L295.108 3.06639Z" fill="#FE5244"/>
<path d="M323.628 10.3427L326.112 7.2832L317.055 -0.000868422L314.57 3.05858L323.628 10.3427Z" fill="#FE5244"/>
<path d="M314.607 12.6016H293.817V13.8776H314.607V12.6016Z" fill="white"/>
<path d="M314.607 18.1074H293.817V19.3834H314.607V18.1074Z" fill="white"/>
<path d="M314.607 23.6367H293.817V24.9127H314.607V23.6367Z" fill="white"/>
<path d="M314.607 29.1445H293.817V30.4205H314.607V29.1445Z" fill="white"/>
<path d="M348.007 371.407C347.511 371.261 347.235 371.188 347.235 371.188L341.229 390.765L318.616 384.861C318.432 384.696 318.341 384.605 318.341 384.605C318.341 384.605 226.77 313.188 221.957 278.915C217.163 244.642 255.518 212.123 255.518 212.123C255.518 212.123 337.316 365.979 347.437 371.005C347.639 371.115 347.841 371.243 348.007 371.407Z" fill="#E57281"/>
<path d="M274.879 248.115C272.014 263.378 261.947 294.289 251.532 324.193C236.102 307.651 223.648 290.962 221.958 278.897C218.908 257.182 233.218 236.143 244.092 223.676C248.079 220.496 252.377 217.571 257.024 214.957C259.872 220.276 266.466 232.596 274.879 248.115Z" fill="#9A3B82"/>
<path d="M399.404 384.587L365.77 406.065L356.016 404.603L347.033 410.27L349.936 416.192L335.148 425.642C315.548 407.893 318.322 384.807 318.322 384.807L341.21 390.784L347.217 371.207C347.217 371.207 367.772 377.184 382.945 376.672C398.155 376.161 399.404 384.587 399.404 384.587Z" fill="white"/>
<path fill-rule="evenodd" clip-rule="evenodd" d="M346.849 370.529L347.371 370.681L347.217 371.208C347.371 370.681 347.371 370.681 347.371 370.681L347.385 370.685L347.429 370.698C347.467 370.709 347.525 370.726 347.602 370.747C347.755 370.79 347.982 370.854 348.276 370.935C348.865 371.096 349.724 371.327 350.802 371.602C352.96 372.153 355.994 372.882 359.501 373.595C366.525 375.023 375.406 376.379 382.926 376.125C390.636 375.866 394.906 377.871 397.252 380.036C398.42 381.114 399.092 382.214 399.473 383.054C399.663 383.473 399.781 383.827 399.851 384.08C399.886 384.207 399.91 384.309 399.925 384.382C399.933 384.418 399.938 384.447 399.942 384.468C399.944 384.479 399.945 384.488 399.947 384.494L399.948 384.503L399.948 384.506L399.949 384.507C399.949 384.507 399.949 384.508 399.403 384.588L399.949 384.508L400.001 384.858L365.892 406.639L356.137 405.176L347.744 410.471L350.645 416.39L335.09 426.332L334.777 426.048C324.874 417.081 320.622 406.761 318.847 398.686C317.959 394.65 317.69 391.173 317.644 388.702C317.62 387.466 317.652 386.482 317.691 385.803C317.71 385.464 317.73 385.201 317.747 385.022C317.755 384.933 317.761 384.864 317.766 384.817C317.769 384.794 317.771 384.775 317.772 384.763L317.774 384.748L317.774 384.744L317.775 384.743C317.775 384.743 317.775 384.742 318.322 384.807L317.775 384.742L317.85 384.117L340.837 390.12L346.849 370.529ZM318.814 385.503C318.806 385.61 318.799 385.731 318.791 385.865C318.754 386.518 318.723 387.476 318.746 388.682C318.791 391.094 319.054 394.498 319.923 398.452C321.643 406.273 325.733 416.239 335.208 424.953L349.225 415.995L346.321 410.07L355.894 404.031L365.646 405.493L398.778 384.336C398.72 384.132 398.623 383.846 398.468 383.505C398.14 382.78 397.549 381.806 396.503 380.841C394.422 378.92 390.463 376.969 382.963 377.221C375.311 377.479 366.328 376.102 359.28 374.67C355.752 373.952 352.699 373.219 350.528 372.665C349.443 372.388 348.577 372.155 347.983 371.992C347.833 371.951 347.7 371.914 347.586 371.882L341.582 391.449L318.814 385.503Z" fill="#FE5244"/>
<path fill-rule="evenodd" clip-rule="evenodd" d="M361.655 373.103C361.609 372.695 361.54 372.121 361.447 371.437C361.258 370.049 360.968 368.202 360.565 366.38C360.164 364.568 359.644 362.742 358.982 361.416C358.652 360.756 358.266 360.174 357.804 359.787C357.325 359.384 356.735 359.171 356.077 359.344L356.076 359.344L356.074 359.344C355.417 359.521 354.991 360.015 354.739 360.609C354.49 361.194 354.384 361.925 354.374 362.71C354.353 364.287 354.717 366.242 355.312 368.091C355.906 369.938 356.749 371.737 357.725 372.984C358.213 373.606 358.758 374.124 359.353 374.426C359.965 374.737 360.64 374.823 361.313 374.548C362.45 374.084 363.52 373.021 364.469 371.785C365.43 370.533 366.318 369.032 367.073 367.598C367.829 366.161 368.458 364.778 368.898 363.755C369.118 363.244 369.291 362.821 369.409 362.526C369.468 362.378 369.514 362.262 369.544 362.183C369.56 362.143 369.571 362.113 369.579 362.092L369.589 362.068L369.592 362.06L369.592 362.06C369.592 362.06 369.592 362.059 369.076 361.866C368.56 361.673 368.56 361.673 368.56 361.673L368.56 361.674L368.56 361.675L368.558 361.68L368.55 361.701C368.542 361.721 368.531 361.749 368.516 361.787C368.487 361.863 368.443 361.976 368.385 362.12C368.27 362.408 368.1 362.822 367.884 363.324C367.452 364.33 366.835 365.685 366.097 367.089C365.356 368.495 364.501 369.936 363.593 371.119C362.94 371.97 362.286 372.653 361.655 373.103ZM360.602 373.609C360.367 373.636 360.122 373.585 359.855 373.449C359.458 373.248 359.03 372.865 358.595 372.31C357.727 371.202 356.933 369.535 356.361 367.757C355.79 365.98 355.457 364.147 355.476 362.724C355.485 362.01 355.583 361.438 355.754 361.036C355.921 360.643 356.131 360.465 356.36 360.404C356.587 360.344 356.817 360.392 357.093 360.625C357.387 360.872 357.693 361.3 357.995 361.904C358.595 363.106 359.093 364.825 359.489 366.616C359.883 368.397 360.168 370.212 360.355 371.584C360.448 372.27 360.517 372.843 360.562 373.245C360.578 373.39 360.592 373.512 360.602 373.609Z" fill="#FE5244"/>
<path fill-rule="evenodd" clip-rule="evenodd" d="M398.299 382.128L366.29 402.014L355.666 400.314L344.517 406.945L321.821 406.595L321.838 405.498L344.221 405.843L355.445 399.167L366.057 400.866L397.715 381.197L398.299 382.128Z" fill="#FE5244"/>
<path fill-rule="evenodd" clip-rule="evenodd" d="M353.878 382.571L355.973 372.865L357.05 373.095L354.956 382.802L353.878 382.571Z" fill="#FE5244"/>
<path fill-rule="evenodd" clip-rule="evenodd" d="M358.434 383.667L360.528 373.961L361.606 374.191L359.512 383.897L358.434 383.667Z" fill="#FE5244"/>
<path fill-rule="evenodd" clip-rule="evenodd" d="M363.192 384.454L365.286 374.748L366.364 374.978L364.27 384.684L363.192 384.454Z" fill="#FE5244"/>
<path d="M247.748 204.646C247.748 204.646 261.212 210.898 261.212 233.82C261.212 255.974 209.815 391.642 209.815 391.642L194 404.986L177.945 387.493C185.788 380.071 163.268 245.903 247.748 204.646Z" fill="#E57281"/>
<path d="M246.316 430.979L206.344 431.016L198.923 424.545L188.287 424.49L187.516 431.034L171.847 431.052C163.323 404.657 178.019 387.475 178.019 387.475L193.963 404.949L209.889 391.624C209.889 391.624 223.703 407.746 236.745 415.46C249.824 423.192 246.316 430.979 246.316 430.979Z" fill="white"/>
<path fill-rule="evenodd" clip-rule="evenodd" d="M178.005 386.645L194.014 404.19L209.953 390.854L210.309 391.269L209.889 391.624C210.309 391.269 210.308 391.268 210.309 391.269L210.318 391.28L210.347 391.314C210.373 391.344 210.412 391.389 210.464 391.448C210.568 391.567 210.721 391.743 210.922 391.97C211.323 392.423 211.911 393.081 212.658 393.894C214.152 395.521 216.28 397.77 218.813 400.259C223.888 405.245 230.564 411.167 237.027 414.989C243.657 418.909 246.165 422.895 246.968 425.982C247.368 427.519 247.338 428.808 247.204 429.721C247.138 430.177 247.045 430.539 246.967 430.791C246.928 430.917 246.893 431.015 246.867 431.085C246.86 431.103 246.854 431.119 246.848 431.133C246.843 431.146 246.838 431.157 246.834 431.167C246.83 431.177 246.826 431.185 246.824 431.191L246.82 431.199L246.819 431.203C246.818 431.203 246.818 431.204 246.315 430.979L246.818 431.204L246.672 431.527L206.137 431.564L198.714 425.092L188.777 425.041L188.006 431.582L171.445 431.601L171.322 431.22C167.018 417.893 168.574 406.877 171.215 399.188C172.534 395.346 174.124 392.337 175.386 390.286C176.017 389.26 176.566 388.473 176.96 387.94C177.157 387.674 177.314 387.471 177.424 387.333C177.479 387.265 177.522 387.212 177.551 387.177C177.566 387.159 177.577 387.145 177.585 387.136L177.595 387.124L177.598 387.121L177.598 387.12C177.599 387.12 177.599 387.12 178.019 387.475L177.599 387.12L178.005 386.645ZM178.048 388.323C177.987 388.402 177.92 388.491 177.848 388.59C177.471 389.1 176.939 389.861 176.326 390.858C175.099 392.853 173.547 395.79 172.258 399.543C169.707 406.971 168.181 417.607 172.25 430.504L187.025 430.486L187.797 423.939L199.131 423.998L206.551 430.467L245.925 430.431C245.986 430.228 246.059 429.934 246.114 429.563C246.229 428.774 246.259 427.633 245.901 426.257C245.189 423.517 242.912 419.744 236.464 415.932C229.884 412.04 223.132 406.044 218.039 401.04C215.489 398.535 213.348 396.271 211.845 394.634C211.093 393.815 210.5 393.153 210.095 392.694C209.994 392.581 209.905 392.48 209.828 392.392L193.912 405.709L178.048 388.323Z" fill="#FE5244"/>
<path fill-rule="evenodd" clip-rule="evenodd" d="M228.295 385.996C229.113 385.884 229.902 386.086 230.586 386.677C231.265 387.263 231.577 387.994 231.575 388.798C231.573 389.574 231.278 390.379 230.834 391.164C229.945 392.731 228.346 394.401 226.654 395.91C224.952 397.428 223.114 398.82 221.704 399.83C221.053 400.297 220.492 400.684 220.076 400.965C220.259 400.982 220.481 400.99 220.746 400.986C221.408 400.976 222.242 400.892 223.196 400.75C225.101 400.466 227.426 399.963 229.687 399.415C231.947 398.867 234.131 398.278 235.752 397.825C236.562 397.599 237.23 397.407 237.696 397.271C237.929 397.204 238.111 397.15 238.235 397.114C238.297 397.095 238.344 397.081 238.376 397.072L238.423 397.058C238.423 397.058 238.423 397.058 238.582 397.583C238.741 398.108 238.741 398.108 238.741 398.108L238.691 398.123C238.673 398.128 238.65 398.135 238.622 398.143C238.601 398.15 238.576 398.157 238.548 398.165C238.423 398.202 238.239 398.256 238.005 398.324C237.536 398.461 236.864 398.654 236.05 398.881C234.422 399.336 232.224 399.929 229.948 400.481C227.675 401.031 225.313 401.544 223.359 401.834C222.383 401.98 221.494 402.072 220.763 402.083C220.065 402.094 219.4 402.035 218.956 401.793C218.35 401.461 218.237 400.743 218.259 400.14C218.282 399.486 218.468 398.681 218.759 397.811C219.345 396.062 220.4 393.924 221.669 391.958C222.934 389.999 224.442 388.162 225.952 387.056C226.707 386.503 227.501 386.105 228.295 385.996ZM219.363 400.121C219.779 399.841 220.368 399.437 221.06 398.94C222.452 397.942 224.257 396.575 225.919 395.093C227.591 393.602 229.077 392.03 229.874 390.625C230.272 389.922 230.471 389.308 230.473 388.795C230.474 388.31 230.3 387.882 229.863 387.505C229.43 387.131 228.963 387.012 228.445 387.083C227.903 387.157 227.281 387.444 226.605 387.94C225.252 388.93 223.83 390.639 222.596 392.551C221.367 394.456 220.356 396.512 219.805 398.158C219.538 398.954 219.39 399.624 219.363 400.121Z" fill="#FE5244"/>
<path fill-rule="evenodd" clip-rule="evenodd" d="M169.44 408.174L170.028 407.246L188.648 418.933H201.713L209.961 425.824H246.628V426.921H209.56L201.312 420.03H188.33L169.44 408.174Z" fill="#FE5244"/>
<path fill-rule="evenodd" clip-rule="evenodd" d="M208.067 403.849L215.121 396.83L215.9 397.606L208.846 404.625L208.067 403.849Z" fill="#FE5244"/>
<path fill-rule="evenodd" clip-rule="evenodd" d="M211.299 407.23L218.353 400.211L219.132 400.986L212.078 408.006L211.299 407.23Z" fill="#FE5244"/>
<path fill-rule="evenodd" clip-rule="evenodd" d="M214.863 410.449L221.917 403.43L222.696 404.205L215.643 411.224L214.863 410.449Z" fill="#FE5244"/>
<path d="M247.747 204.647C215.986 220.148 199.344 248.81 190.545 278.915H94.1619C69.492 278.915 51.1045 256.267 56.303 232.267L63.3751 199.584H230.957C237.166 199.584 242.934 201.448 247.747 204.647Z" fill="#FE5244"/>
<path d="M176.18 235.977L210.879 235.904L205.736 244.295L176.18 235.977Z" fill="#E57281"/>
<path fill-rule="evenodd" clip-rule="evenodd" d="M99.9318 199.047C100.23 199.109 100.421 199.399 100.359 199.696L99.0178 206.093C99.0178 206.093 99.0178 206.093 99.0178 206.093C95.8561 221.199 107.425 235.374 122.928 235.374H210.579C219.826 222.629 231.894 211.684 247.687 203.972C247.961 203.838 248.291 203.951 248.425 204.223C248.559 204.494 248.446 204.823 248.173 204.956C232.465 212.626 220.483 223.531 211.309 236.242L211.144 236.471H122.928C106.725 236.471 94.6347 221.655 97.9388 205.87L99.2798 199.472C99.3419 199.175 99.6338 198.985 99.9318 199.047Z" fill="white"/>
<path fill-rule="evenodd" clip-rule="evenodd" d="M175.651 235.807C175.735 235.516 176.041 235.348 176.333 235.432L206.208 243.963L205.844 244.574C199.425 255.328 194.702 267.074 191.204 279.049C191.119 279.34 190.813 279.507 190.521 279.423C190.228 279.338 190.06 279.034 190.145 278.743C193.598 266.926 198.242 255.309 204.533 244.626L176.029 236.486C175.737 236.402 175.567 236.099 175.651 235.807Z" fill="white"/>
<path d="M40.8545 111.789L58.5073 180.701H25.5713C6.39381 180.701 -5.95031 160.43 2.9404 143.522L28.2348 95.3926C35.3988 81.7747 49.5615 73.2383 65.01 73.2383H70.98C50.7004 73.22 35.8397 92.2303 40.8545 111.789Z" fill="#3FB1B5"/>
<path d="M244.128 93.9102C254.507 93.9102 263.141 92.5393 265.235 90.62L233.033 160.081C227.21 172.657 214.554 180.7 200.648 180.7C196.571 180.7 192.566 180.005 188.782 178.671C184.998 177.336 181.434 175.38 178.256 172.821L157.958 156.516C157.958 156.516 155.938 168.343 141.518 171.359V199.545H63.357L40.8547 111.769C35.8399 92.2102 50.7006 73.1816 70.9802 73.1816H125.702C130.533 73.1816 135.291 73.7848 139.883 74.9547C152.448 78.1353 163.726 85.4835 171.699 96.0123L198.444 131.328L222.471 89.5415C222.471 89.578 222.453 89.6329 222.453 89.6694C222.471 92.1006 232.188 93.9102 244.128 93.9102Z" fill="#3FB1B5"/>
<path fill-rule="evenodd" clip-rule="evenodd" d="M40.5384 111.254C40.8338 111.182 41.1326 111.361 41.2058 111.655L58.4912 181.116C58.5644 181.41 58.3842 181.707 58.0887 181.78C57.7933 181.853 57.4945 181.673 57.4214 181.379L40.1359 111.919C40.0628 111.625 40.2429 111.327 40.5384 111.254Z" fill="white"/>
<path fill-rule="evenodd" clip-rule="evenodd" d="M142.408 140.78C142.63 140.572 142.978 140.583 143.187 140.804L158.543 157.072C158.752 157.293 158.741 157.64 158.519 157.847C158.297 158.055 157.948 158.044 157.74 157.823L142.383 141.555C142.175 141.334 142.186 140.987 142.408 140.78Z" fill="white"/>
<path d="M265.713 89.5953L265.235 90.6189C263.141 92.5565 254.508 93.9092 244.129 93.9092C232.189 93.9092 222.472 92.0995 222.472 89.705C222.472 89.6684 222.472 89.6136 222.49 89.577C222.821 87.2373 232.409 85.2266 244.147 85.2266C255.867 85.2266 265.382 87.2373 265.713 89.5953C265.713 89.577 265.713 89.577 265.713 89.5953Z" fill="#FE5244"/>
<path d="M275.337 54.5015C275.337 55.5434 275.08 56.5671 274.602 57.4628C274.124 58.3584 273.426 59.1444 272.563 59.7476L272.141 60.0401L268.853 77.4967C268.32 80.33 266.63 82.8342 264.187 84.3879L259.686 87.2395L256.123 89.5061L254.469 93.4361C251.402 93.7468 247.893 93.9296 244.146 93.9296C240.362 93.9296 236.798 93.7468 233.694 93.4178V66.3464C233.694 65.1765 233.951 64.025 234.447 62.9648L240.435 50.1328C240.435 50.1328 246.975 51.7414 243.962 59.7294C241.225 66.9862 247.471 65.1217 250.979 63.8239C254.12 62.654 267.842 55.708 273.206 53.1672C274.198 52.6919 275.337 53.4231 275.337 54.5015Z" fill="#E57281"/>
<path fill-rule="evenodd" clip-rule="evenodd" d="M269.691 70.4122C269.94 70.4586 270.104 70.6973 270.058 70.9454C269.501 73.9032 267.737 76.498 265.188 78.1194L257.123 83.2378C256.909 83.3735 256.625 83.311 256.489 83.0983C256.353 82.8855 256.415 82.6029 256.629 82.4672L264.693 77.3493C267.03 75.8633 268.645 73.486 269.155 70.7773C269.201 70.5292 269.441 70.3658 269.691 70.4122Z" fill="#9A3B82"/>
<path fill-rule="evenodd" clip-rule="evenodd" d="M271.013 63.0079C271.262 63.0543 271.427 63.293 271.38 63.5411C270.824 66.4989 269.06 69.0937 266.51 70.7151L258.446 75.8335C258.232 75.9692 257.948 75.9067 257.812 75.6939C257.675 75.4812 257.738 75.1986 257.952 75.0629L266.016 69.945C266.016 69.9449 266.016 69.9449 266.016 69.9448C266.016 69.9448 266.016 69.9448 266.016 69.9448C268.352 68.4588 269.968 66.0816 270.477 63.373C270.524 63.1249 270.764 62.9615 271.013 63.0079Z" fill="#9A3B82"/>
<path fill-rule="evenodd" clip-rule="evenodd" d="M271.94 59.9954C272.076 60.2085 272.013 60.4909 271.799 60.6261L258.83 68.8152C258.616 68.9504 258.332 68.8873 258.196 68.6742C258.06 68.4611 258.124 68.1787 258.338 68.0435L271.306 59.8544C271.521 59.7192 271.804 59.7823 271.94 59.9954Z" fill="#9A3B82"/>
<path d="M260.385 86.782L259.669 87.2389L256.105 89.5055L254.452 93.4355C251.384 93.7463 247.876 93.9291 244.128 93.9291C240.344 93.9291 236.781 93.7463 233.676 93.4173V85.8131C236.781 85.4476 240.344 85.2465 244.128 85.2465C250.613 85.2282 256.417 85.8314 260.385 86.782Z" fill="#9A3B82"/>
<path d="M138.176 74.5349C135.512 78.0993 125.593 86.4894 92.1979 86.4894C49.2323 86.4894 76.731 73.2553 76.731 73.2553L94.9533 42.9668L114.498 54.9031V64.4996C114.498 69.3436 118.447 73.2553 123.297 73.2553H124.564C129.12 73.237 133.823 73.4381 138.176 74.5349Z" fill="#E57281"/>
<path d="M114.481 54.8855V57.3349L76.7134 73.2377L94.9357 42.9492L114.481 54.8855Z" fill="#9A3B82"/>
<path d="M115.507 56.0727H119.659C123.479 56.0727 126.584 52.9835 126.584 49.1814V26.168H101.804V42.4364C101.804 49.9674 107.939 56.0727 115.507 56.0727Z" fill="#E57281"/>
<path fill-rule="evenodd" clip-rule="evenodd" d="M122.719 45.7889L122.719 45.7885L122.718 45.7879L122.718 45.7872C122.718 45.787 122.718 45.7871 122.718 45.7874C122.718 45.7874 122.718 45.7874 122.718 45.7874M122.718 45.7874C122.718 45.7875 122.718 45.7876 122.718 45.7877C122.719 45.7889 122.721 45.7916 122.723 45.796C122.729 45.8046 122.738 45.8193 122.752 45.8392C122.779 45.8791 122.823 45.9397 122.885 46.0141C123.008 46.1632 123.199 46.3661 123.467 46.57C123.997 46.9745 124.833 47.3899 126.051 47.3899C126.304 47.3899 126.51 47.5946 126.51 47.847C126.51 48.0994 126.304 48.3041 126.051 48.3041C124.605 48.3041 123.576 47.8053 122.908 47.2956C122.576 47.0424 122.335 46.7882 122.175 46.5945C122.095 46.4975 122.035 46.4152 121.994 46.3551C121.973 46.3251 121.957 46.3005 121.946 46.2823C121.94 46.2733 121.935 46.2658 121.932 46.26L121.927 46.2526L121.926 46.25L121.925 46.2489L121.925 46.2484C121.925 46.2482 121.925 46.2479 122.322 46.0186" fill="#73325A"/>
<path d="M123.643 40.4808C124.13 40.4808 124.525 39.7195 124.525 38.7804C124.525 37.8413 124.13 37.0801 123.643 37.0801C123.156 37.0801 122.762 37.8413 122.762 38.7804C122.762 39.7195 123.156 40.4808 123.643 40.4808Z" fill="#73325A"/>
<path d="M106.525 28.5635C106.525 28.5635 126.97 40.847 133.62 30.1537C139.461 20.7765 113.579 15.9508 104.541 15.9143C94.714 15.8777 81.6902 20.2099 81.9106 34.5956C82.0943 46.4405 82.5903 63.7691 75.5365 60.753C50.4442 50.0415 28.144 61.2283 28.0705 82.5418C27.997 103.855 52.8505 105.848 53.4751 100.346C54.118 94.8619 38.045 96.1232 40.2125 110.363C42.3617 124.602 51.9504 142.406 73.8465 142.406C100.298 142.424 117.143 107.767 100.776 104.239C88.2296 101.534 113.561 125.626 121.074 100.583C129.156 73.6216 99.9492 64.7927 99.2328 48.506C98.5164 32.2193 106.525 28.5635 106.525 28.5635Z" fill="#FFCF2D"/>
<path fill-rule="evenodd" clip-rule="evenodd" d="M89.2084 19.4632C93.764 16.5227 99.5739 15.4388 104.543 15.4573C109.111 15.4757 117.892 16.6993 124.812 19.0997C128.263 20.297 131.317 21.8085 133.14 23.6579C134.057 24.5886 134.686 25.6285 134.872 26.7785C135.059 27.9359 134.788 29.1468 134.011 30.3942C132.26 33.2103 129.595 34.5048 126.638 34.8699C123.697 35.2331 120.449 34.6822 117.45 33.807C114.445 32.9302 111.657 31.7173 109.622 30.7261C108.604 30.23 107.772 29.7883 107.195 29.4702C106.906 29.3111 106.68 29.1828 106.526 29.0941C106.523 29.0918 106.519 29.0896 106.515 29.0874C106.487 29.1038 106.455 29.1222 106.422 29.1427C106.22 29.2645 105.927 29.4592 105.575 29.744C104.87 30.3132 103.925 31.2437 102.997 32.6749C101.143 35.5329 99.3371 40.4215 99.6918 48.486C99.8648 52.4194 101.758 55.9337 104.45 59.4454C105.794 61.1996 107.328 62.9411 108.932 64.7272C109.205 65.0313 109.48 65.3367 109.757 65.6436C111.101 67.1357 112.477 68.6637 113.806 70.2488C117.01 74.072 119.969 78.2646 121.608 83.2191C123.251 88.1843 123.561 93.887 121.514 100.714C119.61 107.06 116.545 110.389 113.141 111.762C111.342 112.488 109.48 112.655 107.691 112.456C107.768 116.175 106.339 120.6 103.763 124.887C98.2332 134.086 87.2779 142.872 73.8465 142.863C62.7564 142.863 54.7612 138.347 49.277 132.023C43.8041 125.711 40.8427 117.613 39.7586 110.43C39.2324 106.973 39.752 104.225 40.8752 102.126C40.6975 102.062 40.5198 101.994 40.3422 101.924C33.9179 99.3939 27.574 93.4185 27.6115 82.5402C27.6488 71.7049 33.3466 63.4214 42.2246 59.2252C51.0885 55.0356 63.0771 54.9369 75.7178 60.333L75.7181 60.3331C76.5265 60.6788 77.1745 60.7122 77.7048 60.5451C78.2386 60.3769 78.7212 59.9841 79.1541 59.3478C80.0327 58.0563 80.6166 55.895 80.9827 53.1862C81.6685 48.1133 81.5606 41.3964 81.4687 35.6751C81.4629 35.3134 81.4572 34.9557 81.4517 34.6025C81.3389 27.2433 84.6268 22.4204 89.2084 19.4632ZM41.7563 102.427C40.6916 104.342 40.1542 106.927 40.6668 110.294L40.6669 110.295C41.7321 117.352 44.6396 125.275 49.9724 131.426C55.2938 137.563 63.041 141.949 73.8468 141.949H73.8471C86.8673 141.958 97.5602 133.425 102.974 124.418C105.537 120.155 106.885 115.837 106.769 112.321C105.518 112.093 104.317 111.698 103.214 111.204C101.75 110.548 100.445 109.713 99.4086 108.846C98.379 107.985 97.5883 107.071 97.1853 106.248C96.9842 105.837 96.8626 105.414 96.8883 105.014C96.9153 104.593 97.1054 104.221 97.4709 103.961C97.8177 103.714 98.2848 103.595 98.834 103.571C99.3881 103.547 100.066 103.618 100.873 103.792C103.007 104.252 104.631 105.228 105.759 106.604C106.86 107.946 107.464 109.638 107.64 111.53C109.347 111.741 111.111 111.595 112.796 110.915C115.862 109.678 118.781 106.627 120.634 100.453C122.629 93.7986 122.318 88.287 120.736 83.5049C119.15 78.7121 116.277 74.6242 113.1 70.8342C111.783 69.2627 110.42 67.749 109.076 66.257C108.799 65.9492 108.522 65.6424 108.247 65.3362C106.643 63.5493 105.087 61.7847 103.719 59.9996C100.986 56.4327 98.9594 52.7359 98.7742 48.5259C98.4126 40.3037 100.253 35.221 102.225 32.1794C103.209 30.6608 104.222 29.6594 104.996 29.0343C105.383 28.7218 105.71 28.5037 105.944 28.3619C106.061 28.2911 106.155 28.2393 106.221 28.2044C106.254 28.187 106.281 28.1737 106.3 28.1644C106.309 28.1598 106.317 28.1561 106.323 28.1534L106.33 28.15L106.333 28.1484C106.334 28.1482 106.334 28.148 106.526 28.5634L106.334 28.148L106.555 28.0472L106.763 28.1722L106.757 28.1824C106.763 28.1722 106.763 28.1722 106.763 28.1722L106.764 28.1725L106.766 28.1739L106.776 28.1801C106.785 28.1856 106.8 28.194 106.818 28.2051C106.856 28.2273 106.913 28.2605 106.987 28.3034C107.136 28.3894 107.356 28.5146 107.639 28.6705C108.206 28.9824 109.024 29.4168 110.026 29.9052C112.033 30.8829 114.771 32.0727 117.709 32.93C120.652 33.7891 123.762 34.3041 126.525 33.9629C129.271 33.6238 131.656 32.4437 133.23 29.9132L133.23 29.9129C133.913 28.8161 134.111 27.8251 133.965 26.9236C133.818 26.0147 133.313 25.1389 132.484 24.2979C130.815 22.6041 127.928 21.1486 124.509 19.9627C117.689 17.5969 109.01 16.3893 104.54 16.3712M106.7 111.377C106.511 109.726 105.965 108.301 105.047 107.182C104.067 105.987 102.637 105.108 100.679 104.686C99.918 104.522 99.3234 104.464 98.8739 104.484C98.4194 104.504 98.1516 104.6 98.005 104.704C97.8771 104.795 97.8154 104.909 97.8049 105.072C97.7931 105.256 97.8483 105.516 98.011 105.848C98.336 106.512 99.0216 107.329 99.9995 108.147C100.971 108.959 102.204 109.749 103.591 110.371C104.57 110.809 105.619 111.16 106.7 111.377ZM41.7563 102.427C44.4814 103.293 47.1494 103.56 49.2803 103.337C50.5275 103.206 51.619 102.903 52.4333 102.429C53.2501 101.953 53.8317 101.275 53.9316 100.398C54.0255 99.5945 53.8119 98.8917 53.359 98.3312C52.9134 97.7797 52.259 97.393 51.5066 97.1588C50.0059 96.6916 48.0168 96.7973 46.1068 97.5316C44.3303 98.2146 42.5928 99.4522 41.3525 101.326C41.1286 101.247 40.9044 101.163 40.6803 101.075C34.5401 98.656 28.494 92.9784 28.5299 82.5433C28.5661 72.065 34.0552 64.0984 42.6187 60.0507C51.1963 55.9965 62.9039 55.8575 75.3555 61.1728C76.3105 61.5812 77.19 61.666 77.982 61.4165C78.7705 61.168 79.4049 60.6094 79.9146 59.8602C80.9212 58.3807 81.5244 56.035 81.893 53.308C82.5884 48.1637 82.4792 41.3818 82.3875 35.6827C82.3815 35.3132 82.3756 34.9482 82.3701 34.5886C82.2624 27.5621 85.3762 23.0261 89.7082 20.2299C94.0662 17.417 99.6821 16.3532 104.54 16.3712M42.2582 101.626C43.3715 100.04 44.885 98.9812 46.4378 98.3842C48.1948 97.7087 49.9679 97.6374 51.2324 98.031C51.8626 98.2272 52.3414 98.5304 52.6433 98.9039C52.9377 99.2683 53.0857 99.7253 53.0192 100.293L53.019 100.294C52.9625 100.792 52.6308 101.255 51.9695 101.64C51.3054 102.027 50.3533 102.305 49.1838 102.428C47.2486 102.631 44.7955 102.401 42.2582 101.626Z" fill="white"/>
<path fill-rule="evenodd" clip-rule="evenodd" d="M119.715 38.89H105.093V37.793H119.715V38.89Z" fill="#3FB1B5"/>
<path fill-rule="evenodd" clip-rule="evenodd" d="M124.216 34.1378C122.347 34.1378 120.615 36.1304 120.615 38.8903C120.615 41.6503 122.347 43.6429 124.216 43.6429C126.084 43.6429 127.816 41.6503 127.816 38.8903C127.816 36.1304 126.084 34.1378 124.216 34.1378ZM119.513 38.8903C119.513 35.795 121.499 33.041 124.216 33.041C126.933 33.041 128.918 35.795 128.918 38.8903C128.918 41.9857 126.933 44.7397 124.216 44.7397C121.499 44.7397 119.513 41.9857 119.513 38.8903Z" fill="#3FB1B5"/>
<path fill-rule="evenodd" clip-rule="evenodd" d="M101.548 12.7882C99.5207 12.7882 97.8922 14.4238 97.8922 16.4257V31.8167H96.79V16.4257C96.79 13.8212 98.9088 11.6914 101.548 11.6914H106.14C108.757 11.6914 110.897 13.7998 110.897 16.4257H109.795C109.795 14.4087 108.152 12.7882 106.14 12.7882H101.548Z" fill="#66B0F0"/>
<path d="M101.768 48.7612H92.9328C90.6734 48.7612 88.8364 46.9333 88.8364 44.6849V35.8927C88.8364 33.6443 90.6734 31.8164 92.9328 31.8164H101.768C104.028 31.8164 105.865 33.6443 105.865 35.8927V44.6849C105.846 46.9333 104.028 48.7612 101.768 48.7612Z" fill="white"/>
<path fill-rule="evenodd" clip-rule="evenodd" d="M92.9326 32.3643C90.9775 32.3643 89.3873 33.9467 89.3873 35.8922V44.6845C89.3873 46.6299 90.9775 48.2123 92.9326 48.2123H101.768C103.718 48.2123 105.296 46.6342 105.313 44.6822V35.8922C105.313 33.9467 103.723 32.3643 101.768 32.3643H92.9326ZM88.2852 35.8922C88.2852 33.341 90.3688 31.2676 92.9326 31.2676H101.768C104.332 31.2676 106.416 33.341 106.416 35.8922V44.6867L106.416 44.6889C106.395 47.2326 104.336 49.3091 101.768 49.3091H92.9326C90.3688 49.3091 88.2852 47.2357 88.2852 44.6845V35.8922Z" fill="#66B0F0"/>
<path d="M99.4721 45.8544H95.1553C93.3 45.8544 91.7754 44.3555 91.7754 42.491V38.1954C91.7754 36.3492 93.2817 34.832 95.1553 34.832H99.4721C101.327 34.832 102.852 36.3309 102.852 38.1954V42.491C102.852 44.3555 101.346 45.8544 99.4721 45.8544Z" fill="white"/>
<path fill-rule="evenodd" clip-rule="evenodd" d="M95.1556 35.3819C93.5883 35.3819 92.3268 36.6516 92.3268 38.1969V42.4925C92.3268 44.0522 93.6027 45.3075 95.1556 45.3075H99.4724C101.042 45.3075 102.301 44.0541 102.301 42.4925V38.1969C102.301 36.6372 101.025 35.3819 99.4724 35.3819H95.1556ZM91.2246 38.1969C91.2246 36.0498 92.9757 34.2852 95.1556 34.2852H99.4724C101.63 34.2852 103.403 36.0276 103.403 38.1969V42.4925C103.403 44.6598 101.65 46.4042 99.4724 46.4042H95.1556C92.9979 46.4042 91.2246 44.6618 91.2246 42.4925V38.1969Z" fill="#66B0F0"/>
<path fill-rule="evenodd" clip-rule="evenodd" d="M93.061 45.1066L100.739 34.9434L101.62 35.6024L93.942 45.7656L93.061 45.1066Z" fill="#66B0F0"/>
<path fill-rule="evenodd" clip-rule="evenodd" d="M91.5562 43.3677L98.2057 34.5938L99.0857 35.2541L92.4361 44.028L91.5562 43.3677Z" fill="#66B0F0"/>
<path fill-rule="evenodd" clip-rule="evenodd" d="M95.5771 45.524L102.227 36.75L103.107 37.4104L96.4571 46.1844L95.5771 45.524Z" fill="#66B0F0"/>
<path fill-rule="evenodd" clip-rule="evenodd" d="M98.2427 45.5255L102.413 40.0234L103.292 40.6838L99.1226 46.1858L98.2427 45.5255Z" fill="#66B0F0"/>
<path fill-rule="evenodd" clip-rule="evenodd" d="M91.354 40.0592L95.5054 34.5938L96.3847 35.2551L92.2332 40.7205L91.354 40.0592Z" fill="#66B0F0"/>
<path fill-rule="evenodd" clip-rule="evenodd" d="M90.2504 299.388V289.316H91.3526V299.388C91.3526 304.553 87.1381 308.747 81.9475 308.747H59.2432V307.65H81.9475C86.5294 307.65 90.2504 303.948 90.2504 299.388Z" fill="#66B0F0"/>
<path fill-rule="evenodd" clip-rule="evenodd" d="M98.7197 381.827V289.426H99.8219V381.827H98.7197Z" fill="#66B0F0"/>
<path fill-rule="evenodd" clip-rule="evenodd" d="M94.6228 382.374C74.6849 382.374 58.711 395.498 58.711 411.456H57.6089C57.6089 394.695 74.2955 381.277 94.6228 381.277H103.771C124.098 381.277 140.785 394.695 140.785 411.456H139.683C139.683 395.498 123.709 382.374 103.771 382.374H94.6228Z" fill="#66B0F0"/>
<path d="M187.606 290.832H54.2456C47.5592 290.832 42.1587 285.44 42.1587 278.805H190.766L187.606 290.832Z" fill="#FFCF2D"/>
<path d="M57.3523 431.052C62.79 431.052 67.1982 426.666 67.1982 421.255C67.1982 415.844 62.79 411.457 57.3523 411.457C51.9145 411.457 47.5063 415.844 47.5063 421.255C47.5063 426.666 51.9145 431.052 57.3523 431.052Z" fill="#FFCF2D"/>
<path d="M52.3362 310.702H72.1015C73.718 310.702 75.0222 309.404 75.0222 307.796V307.576C75.0222 305.968 73.718 304.67 72.1015 304.67H52.3362C50.7197 304.67 49.4155 305.968 49.4155 307.576V307.796C49.4155 309.404 50.7197 310.702 52.3362 310.702Z" fill="#FFCF2D"/>
<path fill-rule="evenodd" clip-rule="evenodd" d="M11.0748 194.155C8.63273 187.328 13.7108 180.152 20.999 180.152H90.5632C97.3362 180.152 103.366 184.393 105.649 190.734L105.649 190.734L137.562 279.719H41.7719L11.0748 194.155ZM12.113 193.787C9.92638 187.673 14.4737 181.249 20.999 181.249H90.5632C96.8691 181.249 102.485 185.197 104.611 191.104L135.998 278.622H42.5487L12.1131 193.788C12.1131 193.787 12.113 193.787 12.113 193.787Z" fill="#FFCF2D"/>
<path fill-rule="evenodd" clip-rule="evenodd" d="M14.019 183.424H84.4466C90.999 183.424 96.8272 187.518 99.0362 193.658L99.0365 193.659L129.884 279.718H46.8448V278.622H128.32L97.9986 194.028C95.946 188.323 90.5322 184.521 84.4466 184.521H14.019V183.424Z" fill="#FFCF2D"/>
<path d="M140.068 431.052C145.506 431.052 149.914 426.666 149.914 421.255C149.914 415.844 145.506 411.457 140.068 411.457C134.63 411.457 130.222 415.844 130.222 421.255C130.222 426.666 134.63 431.052 140.068 431.052Z" fill="#FFCF2D"/>
</svg>
