<svg width="863" height="717" viewBox="0 0 863 717" fill="none" xmlns="http://www.w3.org/2000/svg">
<g opacity="0.4" clip-path="url(#clip0_2619_461)">
<path d="M734.089 459C662.727 459 605 516.727 605 588.089C605 659.273 662.727 717.177 734.089 717.177C805.273 717.177 863.177 659.45 863.177 588.089C863 516.727 805.273 459 734.089 459ZM734.089 708.855C667.331 708.855 613.323 654.846 613.323 588.089C613.323 521.331 667.331 467.323 734.089 467.323C800.846 467.323 854.855 521.331 854.855 588.089C854.855 654.669 800.669 708.855 734.089 708.855Z" fill="white"/>
<path d="M734.089 486.801C678.31 486.801 632.978 532.132 632.978 587.911C632.978 643.69 678.31 689.022 734.089 689.022C789.868 689.022 835.199 643.867 835.199 588.088C835.199 532.132 789.868 486.801 734.089 486.801ZM734.089 673.616C686.809 673.616 648.384 635.191 648.384 587.911C648.384 540.632 686.809 502.206 734.089 502.206C781.368 502.206 819.793 540.632 819.793 587.911C819.793 635.191 781.368 673.616 734.089 673.616Z" fill="white"/>
</g>
<g opacity="0.6">
<path d="M65.7306 42.8901C76.3279 42.8901 84.9605 34.1647 84.9605 23.4534C84.9605 12.7422 76.3279 4.01672 65.7306 4.01672L65.7306 42.8901Z" fill="white"/>
<path d="M35.7306 42.8901C46.3279 42.8901 54.9605 34.1647 54.9605 23.4534C54.9605 12.7422 46.3279 4.01672 35.7306 4.01672L35.7306 42.8901Z" fill="white"/>
<path d="M5.7306 42.8902C16.3279 42.8902 24.9605 34.1647 24.9605 23.4534C24.9605 12.7422 16.3279 4.01672 5.7306 4.01672L5.7306 42.8902Z" fill="white"/>
</g>
<defs>
<clipPath id="clip0_2619_461">
<rect width="258" height="258" fill="white" transform="translate(605 459)"/>
</clipPath>
</defs>
</svg>
