<svg width="187" height="137" viewBox="0 0 187 137" fill="none" xmlns="http://www.w3.org/2000/svg">
<g opacity="0.8" clip-path="url(#clip0_2234_8808)">
<path d="M5.3356 40.2644C5.3356 41.7838 4.19226 42.9234 2.6678 42.9234C1.14334 42.9234 0 41.7838 0 40.2644C0 38.745 1.14334 37.6055 2.6678 37.6055C4.19226 37.6055 5.3356 38.8716 5.3356 40.2644Z" fill="white"/>
<path d="M28.0758 40.2644C28.0758 41.7838 26.9325 42.9234 25.408 42.9234C23.8836 42.9234 22.7402 41.7838 22.7402 40.2644C22.7402 38.745 23.8836 37.6055 25.408 37.6055C26.8055 37.6055 28.0758 38.8716 28.0758 40.2644Z" fill="white"/>
<path d="M50.6881 40.2644C50.6881 41.7838 49.5448 42.9234 48.0203 42.9234C46.4959 42.9234 45.3525 41.7838 45.3525 40.2644C45.3525 38.745 46.4959 37.6055 48.0203 37.6055C49.5448 37.6055 50.6881 38.8716 50.6881 40.2644Z" fill="white"/>
<path d="M73.4274 40.2644C73.4274 41.7838 72.2841 42.9234 70.7596 42.9234C69.2351 42.9234 68.0918 41.7838 68.0918 40.2644C68.0918 38.745 69.2351 37.6055 70.7596 37.6055C72.2841 37.6055 73.4274 38.8716 73.4274 40.2644Z" fill="white"/>
<path d="M96.1676 40.2644C96.1676 41.7838 95.0243 42.9234 93.4998 42.9234C91.9754 42.9234 90.832 41.7838 90.832 40.2644C90.832 38.745 91.9754 37.6055 93.4998 37.6055C94.8972 37.6055 96.1676 38.8716 96.1676 40.2644Z" fill="white"/>
<path d="M118.908 40.2644C118.908 41.7838 117.765 42.9234 116.24 42.9234C114.716 42.9234 113.572 41.7838 113.572 40.2644C113.572 38.745 114.716 37.6055 116.24 37.6055C117.765 37.6055 118.908 38.8716 118.908 40.2644Z" fill="white"/>
<path d="M141.52 40.2644C141.52 41.7838 140.377 42.9234 138.852 42.9234C137.328 42.9234 136.185 41.7838 136.185 40.2644C136.185 38.745 137.328 37.6055 138.852 37.6055C140.377 37.6055 141.52 38.8716 141.52 40.2644Z" fill="white"/>
<path d="M164.26 40.2644C164.26 41.7838 163.117 42.9234 161.593 42.9234C160.068 42.9234 158.925 41.7838 158.925 40.2644C158.925 38.745 160.068 37.6055 161.593 37.6055C163.117 37.6055 164.26 38.8716 164.26 40.2644Z" fill="white"/>
<path d="M187 40.2644C187 41.7838 185.856 42.9234 184.332 42.9234C182.807 42.9234 181.664 41.7838 181.664 40.2644C181.664 38.745 182.807 37.6055 184.332 37.6055C185.729 37.6055 187 38.8716 187 40.2644Z" fill="white"/>
<path d="M5.3356 59.1306C5.3356 60.6501 4.19226 61.7896 2.6678 61.7896C1.14334 61.7896 0 60.6501 0 59.1306C0 57.6112 1.14334 56.4717 2.6678 56.4717C4.19226 56.4717 5.3356 57.6112 5.3356 59.1306Z" fill="white"/>
<path d="M28.0758 59.1306C28.0758 60.6501 26.9325 61.7896 25.408 61.7896C23.8836 61.7896 22.7402 60.6501 22.7402 59.1306C22.7402 57.6112 23.8836 56.4717 25.408 56.4717C26.8055 56.4717 28.0758 57.6112 28.0758 59.1306Z" fill="white"/>
<path d="M50.6881 59.1306C50.6881 60.6501 49.5448 61.7896 48.0203 61.7896C46.4959 61.7896 45.3525 60.6501 45.3525 59.1306C45.3525 57.6112 46.4959 56.4717 48.0203 56.4717C49.5448 56.4717 50.6881 57.6112 50.6881 59.1306Z" fill="white"/>
<path d="M73.4274 59.1306C73.4274 60.6501 72.2841 61.7896 70.7596 61.7896C69.2351 61.7896 68.0918 60.6501 68.0918 59.1306C68.0918 57.6112 69.2351 56.4717 70.7596 56.4717C72.2841 56.4717 73.4274 57.6112 73.4274 59.1306Z" fill="white"/>
<path d="M96.1676 59.1306C96.1676 60.6501 95.0243 61.7896 93.4998 61.7896C91.9754 61.7896 90.832 60.6501 90.832 59.1306C90.832 57.6112 91.9754 56.4717 93.4998 56.4717C94.8972 56.4717 96.1676 57.6112 96.1676 59.1306Z" fill="white"/>
<path d="M118.908 59.1306C118.908 60.6501 117.765 61.7896 116.24 61.7896C114.716 61.7896 113.572 60.6501 113.572 59.1306C113.572 57.6112 114.716 56.4717 116.24 56.4717C117.765 56.4717 118.908 57.6112 118.908 59.1306Z" fill="white"/>
<path d="M141.52 59.1306C141.52 60.6501 140.377 61.7896 138.852 61.7896C137.328 61.7896 136.185 60.6501 136.185 59.1306C136.185 57.6112 137.328 56.4717 138.852 56.4717C140.377 56.4717 141.52 57.6112 141.52 59.1306Z" fill="white"/>
<path d="M164.26 59.1306C164.26 60.6501 163.117 61.7896 161.593 61.7896C160.068 61.7896 158.925 60.6501 158.925 59.1306C158.925 57.6112 160.068 56.4717 161.593 56.4717C163.117 56.4717 164.26 57.6112 164.26 59.1306Z" fill="white"/>
<path d="M187 59.1306C187 60.6501 185.856 61.7896 184.332 61.7896C182.807 61.7896 181.664 60.6501 181.664 59.1306C181.664 57.6112 182.807 56.4717 184.332 56.4717C185.729 56.4717 187 57.6112 187 59.1306Z" fill="white"/>
<path d="M5.3356 2.65896C5.3356 4.17837 4.19226 5.31793 2.6678 5.31793C1.14334 5.31793 0 4.17837 0 2.65896C0 1.13956 1.14334 0 2.6678 0C4.19226 0 5.3356 1.13956 5.3356 2.65896Z" fill="white"/>
<path d="M28.0758 2.65896C28.0758 4.17837 26.9325 5.31793 25.408 5.31793C23.8836 5.31793 22.7402 4.17837 22.7402 2.65896C22.7402 1.13956 23.8836 0 25.408 0C26.8055 0 28.0758 1.13956 28.0758 2.65896Z" fill="white"/>
<path d="M50.6881 2.65896C50.6881 4.17837 49.5448 5.31793 48.0203 5.31793C46.4959 5.31793 45.3525 4.17837 45.3525 2.65896C45.3525 1.13956 46.6229 0 48.0203 0C49.5448 0 50.6881 1.13956 50.6881 2.65896Z" fill="white"/>
<path d="M73.4274 2.65896C73.4274 4.17837 72.2841 5.31793 70.7596 5.31793C69.2351 5.31793 68.0918 4.17837 68.0918 2.65896C68.0918 1.13956 69.3622 0 70.7596 0C72.157 0 73.4274 1.13956 73.4274 2.65896Z" fill="white"/>
<path d="M96.1676 2.65896C96.1676 4.17837 95.0243 5.31793 93.4998 5.31793C91.9754 5.31793 90.832 4.17837 90.832 2.65896C90.832 1.13956 91.9754 0 93.4998 0C94.8972 0 96.1676 1.13956 96.1676 2.65896Z" fill="white"/>
<path d="M118.908 2.65896C118.908 4.17837 117.765 5.31793 116.24 5.31793C114.716 5.31793 113.572 4.17837 113.572 2.65896C113.572 1.13956 114.716 0 116.24 0C117.765 0 118.908 1.13956 118.908 2.65896Z" fill="white"/>
<path d="M141.52 2.65896C141.52 4.17837 140.377 5.31793 138.852 5.31793C137.328 5.31793 136.185 4.17837 136.185 2.65896C136.185 1.13956 137.328 0 138.852 0C140.377 0 141.52 1.13956 141.52 2.65896Z" fill="white"/>
<path d="M164.26 2.65896C164.26 4.17837 163.117 5.31793 161.593 5.31793C160.068 5.31793 158.925 4.17837 158.925 2.65896C158.925 1.13956 160.068 0 161.593 0C163.117 0 164.26 1.13956 164.26 2.65896Z" fill="white"/>
<path d="M187 2.65896C187 4.17837 185.856 5.31793 184.332 5.31793C182.807 5.31793 181.664 4.17837 181.664 2.65896C181.664 1.13956 182.807 0 184.332 0C185.729 0 187 1.13956 187 2.65896Z" fill="white"/>
<path d="M5.3356 21.5252C5.3356 23.0446 4.19226 24.1841 2.6678 24.1841C1.14334 24.1841 0 22.918 0 21.5252C0 20.0058 1.14334 18.8662 2.6678 18.8662C4.19226 18.8662 5.3356 20.0058 5.3356 21.5252Z" fill="white"/>
<path d="M28.0758 21.5252C28.0758 23.0446 26.9325 24.1841 25.408 24.1841C23.8836 24.1841 22.7402 23.0446 22.7402 21.5252C22.7402 20.0058 23.8836 18.8662 25.408 18.8662C26.8055 18.8662 28.0758 20.0058 28.0758 21.5252Z" fill="white"/>
<path d="M50.6881 21.5252C50.6881 23.0446 49.5448 24.1841 48.0203 24.1841C46.4959 24.1841 45.3525 23.0446 45.3525 21.5252C45.3525 20.0058 46.4959 18.8662 48.0203 18.8662C49.5448 18.8662 50.6881 20.0058 50.6881 21.5252Z" fill="white"/>
<path d="M73.4274 21.5252C73.4274 23.0446 72.2841 24.1841 70.7596 24.1841C69.2351 24.1841 68.0918 23.0446 68.0918 21.5252C68.0918 20.0058 69.2351 18.8662 70.7596 18.8662C72.2841 18.8662 73.4274 20.0058 73.4274 21.5252Z" fill="white"/>
<path d="M96.1676 21.5252C96.1676 23.0446 95.0243 24.1841 93.4998 24.1841C91.9754 24.1841 90.832 23.0446 90.832 21.5252C90.832 20.0058 91.9754 18.8662 93.4998 18.8662C94.8972 18.8662 96.1676 20.0058 96.1676 21.5252Z" fill="white"/>
<path d="M118.908 21.5252C118.908 23.0446 117.765 24.1841 116.24 24.1841C114.716 24.1841 113.572 23.0446 113.572 21.5252C113.572 20.0058 114.716 18.8662 116.24 18.8662C117.765 18.8662 118.908 20.0058 118.908 21.5252Z" fill="white"/>
<path d="M141.52 21.5252C141.52 23.0446 140.377 24.1841 138.852 24.1841C137.328 24.1841 136.185 23.0446 136.185 21.5252C136.185 20.0058 137.328 18.8662 138.852 18.8662C140.377 18.8662 141.52 20.0058 141.52 21.5252Z" fill="white"/>
<path d="M164.26 21.5252C164.26 23.0446 163.117 24.1841 161.593 24.1841C160.068 24.1841 158.925 23.0446 158.925 21.5252C158.925 20.0058 160.068 18.8662 161.593 18.8662C163.117 18.8662 164.26 20.0058 164.26 21.5252Z" fill="white"/>
<path d="M187 21.5252C187 23.0446 185.856 24.1841 184.332 24.1841C182.807 24.1841 181.664 23.0446 181.664 21.5252C181.664 20.0058 182.807 18.8662 184.332 18.8662C185.729 18.8662 187 20.0058 187 21.5252Z" fill="white"/>
<path d="M5.3356 77.8699C5.3356 79.3893 4.19226 80.5289 2.6678 80.5289C1.14334 80.5289 0 79.3893 0 77.8699C0 76.3505 1.14334 75.2109 2.6678 75.2109C4.19226 75.2109 5.3356 76.4771 5.3356 77.8699Z" fill="white"/>
<path d="M28.0758 77.8699C28.0758 79.3893 26.9325 80.5289 25.408 80.5289C23.8836 80.5289 22.7402 79.3893 22.7402 77.8699C22.7402 76.3505 23.8836 75.2109 25.408 75.2109C26.8055 75.2109 28.0758 76.4771 28.0758 77.8699Z" fill="white"/>
<path d="M50.6881 77.8699C50.6881 79.3893 49.5448 80.5289 48.0203 80.5289C46.4959 80.5289 45.3525 79.3893 45.3525 77.8699C45.3525 76.3505 46.4959 75.2109 48.0203 75.2109C49.5448 75.2109 50.6881 76.4771 50.6881 77.8699Z" fill="white"/>
<path d="M73.4274 77.8699C73.4274 79.3893 72.2841 80.5289 70.7596 80.5289C69.2351 80.5289 68.0918 79.3893 68.0918 77.8699C68.0918 76.3505 69.2351 75.2109 70.7596 75.2109C72.2841 75.2109 73.4274 76.4771 73.4274 77.8699Z" fill="white"/>
<path d="M96.1676 77.8699C96.1676 79.3893 95.0243 80.5289 93.4998 80.5289C91.9754 80.5289 90.832 79.3893 90.832 77.8699C90.832 76.3505 91.9754 75.2109 93.4998 75.2109C94.8972 75.2109 96.1676 76.4771 96.1676 77.8699Z" fill="white"/>
<path d="M118.908 77.8699C118.908 79.3893 117.765 80.5289 116.24 80.5289C114.716 80.5289 113.572 79.3893 113.572 77.8699C113.572 76.3505 114.716 75.2109 116.24 75.2109C117.765 75.2109 118.908 76.4771 118.908 77.8699Z" fill="white"/>
<path d="M141.52 77.8699C141.52 79.3893 140.377 80.5289 138.852 80.5289C137.328 80.5289 136.185 79.3893 136.185 77.8699C136.185 76.3505 137.328 75.2109 138.852 75.2109C140.377 75.2109 141.52 76.4771 141.52 77.8699Z" fill="white"/>
<path d="M164.26 77.8699C164.26 79.3893 163.117 80.5289 161.593 80.5289C160.068 80.5289 158.925 79.3893 158.925 77.8699C158.925 76.3505 160.068 75.2109 161.593 75.2109C163.117 75.2109 164.26 76.4771 164.26 77.8699Z" fill="white"/>
<path d="M187 77.8699C187 79.3893 185.856 80.5289 184.332 80.5289C182.807 80.5289 181.664 79.3893 181.664 77.8699C181.664 76.3505 182.807 75.2109 184.332 75.2109C185.729 75.2109 187 76.4771 187 77.8699Z" fill="white"/>
<path d="M5.3356 96.7361C5.3356 98.2555 4.19226 99.3951 2.6678 99.3951C1.14334 99.3951 0 98.2555 0 96.7361C0 95.2167 1.14334 94.0771 2.6678 94.0771C4.19226 94.0771 5.3356 95.2167 5.3356 96.7361Z" fill="white"/>
<path d="M28.0758 96.7361C28.0758 98.2555 26.9325 99.3951 25.408 99.3951C23.8836 99.3951 22.7402 98.2555 22.7402 96.7361C22.7402 95.2167 23.8836 94.0771 25.408 94.0771C26.8055 94.0771 28.0758 95.2167 28.0758 96.7361Z" fill="white"/>
<path d="M50.6881 96.7361C50.6881 98.2555 49.5448 99.3951 48.0203 99.3951C46.4959 99.3951 45.3525 98.2555 45.3525 96.7361C45.3525 95.2167 46.4959 94.0771 48.0203 94.0771C49.5448 94.0771 50.6881 95.2167 50.6881 96.7361Z" fill="white"/>
<path d="M70.7596 99.3951C72.233 99.3951 73.4274 98.2046 73.4274 96.7361C73.4274 95.2676 72.233 94.0771 70.7596 94.0771C69.2862 94.0771 68.0918 95.2676 68.0918 96.7361C68.0918 98.2046 69.2862 99.3951 70.7596 99.3951Z" fill="white"/>
<path d="M96.1676 96.7361C96.1676 98.2555 95.0243 99.3951 93.4998 99.3951C91.9754 99.3951 90.832 98.2555 90.832 96.7361C90.832 95.2167 91.9754 94.0771 93.4998 94.0771C94.8972 94.0771 96.1676 95.2167 96.1676 96.7361Z" fill="white"/>
<path d="M118.908 96.7361C118.908 98.2555 117.765 99.3951 116.24 99.3951C114.716 99.3951 113.572 98.2555 113.572 96.7361C113.572 95.2167 114.716 94.0771 116.24 94.0771C117.765 94.0771 118.908 95.2167 118.908 96.7361Z" fill="white"/>
<path d="M141.52 96.7361C141.52 98.2555 140.377 99.3951 138.852 99.3951C137.328 99.3951 136.185 98.2555 136.185 96.7361C136.185 95.2167 137.328 94.0771 138.852 94.0771C140.377 94.0771 141.52 95.2167 141.52 96.7361Z" fill="white"/>
<path d="M161.593 99.3951C163.066 99.3951 164.26 98.2046 164.26 96.7361C164.26 95.2676 163.066 94.0771 161.593 94.0771C160.119 94.0771 158.925 95.2676 158.925 96.7361C158.925 98.2046 160.119 99.3951 161.593 99.3951Z" fill="white"/>
<path d="M187 96.7361C187 98.2555 185.856 99.3951 184.332 99.3951C182.807 99.3951 181.664 98.2555 181.664 96.7361C181.664 95.2167 182.807 94.0771 184.332 94.0771C185.729 94.0771 187 95.2167 187 96.7361Z" fill="white"/>
<path d="M5.3356 115.601C5.3356 117.121 4.19226 118.26 2.6678 118.26C1.14334 118.26 0 117.121 0 115.601C0 114.082 1.14334 112.942 2.6678 112.942C4.19226 112.942 5.3356 114.082 5.3356 115.601Z" fill="white"/>
<path d="M28.0758 115.601C28.0758 117.121 26.9325 118.26 25.408 118.26C23.8836 118.26 22.7402 117.121 22.7402 115.601C22.7402 114.082 23.8836 112.942 25.408 112.942C26.8055 112.942 28.0758 114.082 28.0758 115.601Z" fill="white"/>
<path d="M50.6881 115.601C50.6881 117.121 49.5448 118.26 48.0203 118.26C46.4959 118.26 45.3525 117.121 45.3525 115.601C45.3525 114.082 46.4959 112.942 48.0203 112.942C49.5448 112.942 50.6881 114.082 50.6881 115.601Z" fill="white"/>
<path d="M73.4274 115.601C73.4274 117.121 72.2841 118.26 70.7596 118.26C69.2351 118.26 68.0918 117.121 68.0918 115.601C68.0918 114.082 69.2351 112.942 70.7596 112.942C72.2841 112.942 73.4274 114.082 73.4274 115.601Z" fill="white"/>
<path d="M96.1676 115.601C96.1676 117.121 95.0243 118.26 93.4998 118.26C91.9754 118.26 90.832 117.121 90.832 115.601C90.832 114.082 91.9754 112.942 93.4998 112.942C94.8972 112.942 96.1676 114.082 96.1676 115.601Z" fill="white"/>
<path d="M118.908 115.601C118.908 117.121 117.765 118.26 116.24 118.26C114.716 118.26 113.572 117.121 113.572 115.601C113.572 114.082 114.716 112.942 116.24 112.942C117.765 112.942 118.908 114.082 118.908 115.601Z" fill="white"/>
<path d="M141.52 115.601C141.52 117.121 140.377 118.26 138.852 118.26C137.328 118.26 136.185 117.121 136.185 115.601C136.185 114.082 137.328 112.942 138.852 112.942C140.377 112.942 141.52 114.082 141.52 115.601Z" fill="white"/>
<path d="M164.26 115.601C164.26 117.121 163.117 118.26 161.593 118.26C160.068 118.26 158.925 117.121 158.925 115.601C158.925 114.082 160.068 112.942 161.593 112.942C163.117 112.942 164.26 114.082 164.26 115.601Z" fill="white"/>
<path d="M187 115.601C187 117.121 185.856 118.26 184.332 118.26C182.807 118.26 181.664 117.121 181.664 115.601C181.664 114.082 182.807 112.942 184.332 112.942C185.729 112.942 187 114.082 187 115.601Z" fill="white"/>
<path d="M5.3356 134.341C5.3356 135.86 4.19226 137 2.6678 137C1.14334 137 0 135.86 0 134.341C0 132.821 1.14334 131.682 2.6678 131.682C4.19226 131.682 5.3356 132.948 5.3356 134.341Z" fill="white"/>
<path d="M28.0758 134.341C28.0758 135.86 26.9325 137 25.408 137C23.8836 137 22.7402 135.86 22.7402 134.341C22.7402 132.821 23.8836 131.682 25.408 131.682C26.8055 131.682 28.0758 132.948 28.0758 134.341Z" fill="white"/>
<path d="M50.6881 134.341C50.6881 135.86 49.5448 137 48.0203 137C46.4959 137 45.3525 135.86 45.3525 134.341C45.3525 132.821 46.4959 131.682 48.0203 131.682C49.5448 131.682 50.6881 132.948 50.6881 134.341Z" fill="white"/>
<path d="M73.4274 134.341C73.4274 135.86 72.2841 137 70.7596 137C69.2351 137 68.0918 135.86 68.0918 134.341C68.0918 132.821 69.2351 131.682 70.7596 131.682C72.2841 131.682 73.4274 132.948 73.4274 134.341Z" fill="white"/>
<path d="M96.1676 134.341C96.1676 135.86 95.0243 137 93.4998 137C91.9754 137 90.832 135.86 90.832 134.341C90.832 132.821 91.9754 131.682 93.4998 131.682C94.8972 131.682 96.1676 132.948 96.1676 134.341Z" fill="white"/>
<path d="M118.908 134.341C118.908 135.86 117.765 137 116.24 137C114.716 137 113.572 135.86 113.572 134.341C113.572 132.821 114.716 131.682 116.24 131.682C117.765 131.682 118.908 132.948 118.908 134.341Z" fill="white"/>
<path d="M141.52 134.341C141.52 135.86 140.377 137 138.852 137C137.328 137 136.185 135.86 136.185 134.341C136.185 132.821 137.328 131.682 138.852 131.682C140.377 131.682 141.52 132.948 141.52 134.341Z" fill="white"/>
<path d="M164.26 134.341C164.26 135.86 163.117 137 161.593 137C160.068 137 158.925 135.86 158.925 134.341C158.925 132.821 160.068 131.682 161.593 131.682C163.117 131.682 164.26 132.948 164.26 134.341Z" fill="white"/>
<path d="M187 134.341C187 135.86 185.856 137 184.332 137C182.807 137 181.664 135.86 181.664 134.341C181.664 132.821 182.807 131.682 184.332 131.682C185.729 131.682 187 132.948 187 134.341Z" fill="white"/>
</g>
<defs>
<clipPath id="clip0_2234_8808">
<rect width="187" height="137" fill="white"/>
</clipPath>
</defs>
</svg>
